<svg width="60" height="60" viewBox="0 0 60 60" fill="none" xmlns="http://www.w3.org/2000/svg">
<path d="M42.8674 32.9711L31.1273 36.0238C30.4018 36.2125 29.6404 36.2163 28.913 36.035L16.528 32.9466C14.5639 32.4569 13.1855 30.6926 13.1855 28.6683V15.1373C13.1854 6.77717 19.9627 0 28.3229 0H31.0298C39.3899 0 46.1671 6.77717 46.1671 15.1373V28.7039C46.1671 30.7116 44.8106 32.4658 42.8674 32.9711Z" fill="#FD9727"/>
<path d="M31.0307 0H28.3238C27.6439 0 26.9746 0.0455859 26.3184 0.132422C33.7305 1.11363 39.4504 7.45709 39.4504 15.1373V28.7039C39.4504 30.7116 38.0939 32.4659 36.1507 32.9712L26.5934 35.4563L28.9141 36.035C29.6414 36.2164 30.4027 36.2125 31.1283 36.0238L42.8685 32.9711C44.8117 32.4658 46.1681 30.7116 46.1681 28.7037V15.1373C46.168 6.77717 39.3908 0 31.0307 0Z" fill="#FF6D3A"/>
<path d="M13.8864 24.5874H17.0985V16.7451H13.8864C12.9427 16.7451 12.1777 17.5101 12.1777 18.4538V22.8786C12.1777 23.8224 12.9427 24.5874 13.8864 24.5874Z" fill="#3D6687"/>
<path d="M46.1144 24.5874H42.9023V16.7451H46.1144C47.0582 16.7451 47.8232 17.5101 47.8232 18.4538V22.8786C47.8232 23.8224 47.0582 24.5874 46.1144 24.5874Z" fill="#3D6687"/>
<path d="M37.2535 38.2709C36.1302 38.045 35.3219 37.0582 35.3219 35.9124V30.4897H30.0006H24.6793V35.9124C24.6793 37.0582 23.8711 38.045 22.7477 38.2709L21.4512 38.5315V47.2396H30.0006H38.5501V38.5315L37.2535 38.2709Z" fill="#FED9A8"/>
<path d="M48.3329 41.1946L37.6597 37.8667C37.3285 37.7634 36.9672 37.8473 36.7152 38.086L30.0007 44.4491L23.2863 38.0861C23.0343 37.8474 22.673 37.7635 22.3417 37.8669L11.6685 41.1947C6.93652 42.588 3.6875 46.9316 3.6875 51.8645V58.975C3.6875 59.541 4.14641 59.9999 4.71242 59.9999H55.2892C55.8552 59.9999 56.3141 59.541 56.3141 58.975V51.8645C56.314 46.9315 53.0649 42.5879 48.3329 41.1946Z" fill="#FF4C4C"/>
<path d="M48.3318 41.1946L37.6586 37.8667C37.3273 37.7634 36.966 37.8473 36.7141 38.086L35.459 39.2754L41.6141 41.1946C46.3462 42.5879 49.5952 46.9315 49.5952 51.8644V59.9998H55.288C55.854 59.9998 56.3129 59.5409 56.3129 58.9749V51.8644C56.3128 46.9315 53.0638 42.5879 48.3318 41.1946Z" fill="#EF2929"/>
<path d="M30.0004 34.9984C22.6748 34.9984 16.7363 29.0599 16.7363 21.7344V18.0068C16.7363 10.6813 22.6749 4.74268 30.0004 4.74268C37.3259 4.74268 43.2645 10.6813 43.2645 18.0068V21.7344C43.2645 29.06 37.326 34.9984 30.0004 34.9984Z" fill="#FED9A8"/>
<path d="M36.5459 6.46875V21.7344C36.5459 27.8994 32.3397 33.0816 26.6406 34.569C27.7135 34.8489 28.8389 34.9985 29.9994 34.9985C37.3251 34.9985 43.2635 29.0599 43.2635 21.7344V18.0068C43.2636 13.0621 40.5576 8.7498 36.5459 6.46875Z" fill="#F4C892"/>
<path d="M23.2847 38.0862L29.9992 44.4493L25.8583 45.86C24.8437 46.2056 23.7208 45.9051 23.0144 45.099L17.8926 39.2537L22.3402 37.867C22.6716 37.7636 23.0329 37.8475 23.2847 38.0862Z" fill="#D4145A"/>
<path d="M36.7145 38.0862L30 44.4493L33.753 45.7278C35.0024 46.1534 36.3851 45.7833 37.2548 44.7908L42.1066 39.2537L37.659 37.867C37.3276 37.7636 36.9663 37.8475 36.7145 38.0862Z" fill="#D4145A"/>
<path d="M22.076 54.7367H15.2489C14.8698 54.7367 14.5625 54.4295 14.5625 54.0504V51.0265C14.5625 50.6474 14.8698 50.3401 15.2489 50.3401H22.076C22.4551 50.3401 22.7623 50.6474 22.7623 51.0265V54.0504C22.7624 54.4293 22.4551 54.7367 22.076 54.7367Z" fill="#EDA558"/>
<path d="M46.1672 17.9333C46.1672 17.9333 40.4445 17.4791 38.4863 12.2151C38.4863 12.2151 24.6524 23.2906 13.1855 17.9333V15.1373C13.1855 6.77717 19.9628 0 28.323 0H31.0299C39.39 0 46.1672 6.77717 46.1672 15.1373V17.9333Z" fill="#FD9727"/>
<path d="M31.0307 0H28.3238C27.6439 0 26.9746 0.0455859 26.3184 0.132422C33.3661 1.06535 38.8834 6.84655 39.4089 14.015C41.8221 17.5877 46.168 17.9333 46.168 17.9333V15.1373C46.168 6.77717 39.3908 0 31.0307 0Z" fill="#FF6D3A"/>
<path d="M49.4864 49.9026C48.9859 49.9026 48.5801 50.3083 48.5801 50.8089V59.9999H50.3926V50.8088C50.3927 50.3083 49.9869 49.9026 49.4864 49.9026Z" fill="#D4145A"/>
<path d="M10.5137 49.9026C10.0132 49.9026 9.60742 50.3083 9.60742 50.8089V59.9999H11.42V50.8088C11.42 50.3083 11.0143 49.9026 10.5137 49.9026Z" fill="#D4145A"/>
<path d="M43.6344 24.5874V26.2406C43.6344 27.6656 42.615 28.8748 41.2104 29.1155L32.0905 30.6795C31.5976 30.7639 31.2666 31.232 31.3511 31.7249C31.4266 32.166 31.8095 32.4775 32.2424 32.4775C32.2932 32.4775 32.3447 32.4733 32.3965 32.4644L41.5163 30.9005C43.7928 30.51 45.4452 28.5503 45.4452 26.2406V24.5874H43.6344Z" fill="#3D6687"/>
<path d="M32.3656 33.3495C31.528 33.3495 30.7871 32.7468 30.6407 31.8933C30.4771 30.9396 31.1178 30.0338 32.0715 29.8702L35.026 29.3635C35.9799 29.1996 36.8855 29.8404 37.0491 30.7942C37.2127 31.7479 36.5721 32.6537 35.6184 32.8173L32.6639 33.324C32.5637 33.3411 32.4639 33.3495 32.3656 33.3495Z" fill="#D4145A"/>
</svg>
