<svg width="60" height="60" viewBox="0 0 60 60" fill="none" xmlns="http://www.w3.org/2000/svg">
<g clip-path="url(#clip0_338_2910)">
<path d="M57.2727 38.1819H2.7273C1.2273 38.1819 0 36.9546 0 35.4546V5.4546C0 3.9546 1.2273 2.72729 2.7273 2.72729H57.2728C58.7728 2.72729 60.0001 3.9546 60.0001 5.4546V35.4546C60 36.9546 58.7727 38.1819 57.2727 38.1819Z" fill="#0E9347"/>
<path d="M50.4552 27.2727C47.3188 27.2727 44.4552 28.7727 42.8188 31.2272C41.4552 30.5455 39.9552 30 38.1825 30C33.4098 30 29.4552 33.5455 28.7734 38.1818H57.2734C58.637 38.1818 59.7279 37.2273 60.0007 35.8636C59.4552 31.0909 55.3643 27.2727 50.4552 27.2727Z" fill="#0D8944"/>
<path d="M51.8175 35.4545H8.18105C8.18105 32.4545 5.72656 30 2.72656 30V10.9091C5.72656 10.9091 8.18105 8.45459 8.18105 5.45459H51.8175C51.8175 8.45459 54.2719 10.9091 57.2719 10.9091V30C54.2719 30 51.8175 32.4545 51.8175 35.4545Z" fill="#3BB54A"/>
<path d="M50.4534 27.2727C47.317 27.2727 44.4534 28.7727 42.817 31.2272C41.4534 30.5455 39.9534 30 38.1807 30C34.3625 30 31.0898 32.1818 29.5898 35.4545H51.8171C51.8171 32.4545 54.1353 30.1363 57.1353 30C55.3625 28.3636 53.0445 27.2727 50.4534 27.2727Z" fill="#0E9347"/>
<path d="M29.9989 32.7273C36.0239 32.7273 40.908 27.2326 40.908 20.4546C40.908 13.6766 36.0239 8.18188 29.9989 8.18188C23.974 8.18188 19.0898 13.6766 19.0898 20.4546C19.0898 27.2326 23.974 32.7273 29.9989 32.7273Z" fill="#0E9347"/>
<path d="M13.6355 23.1819C15.1418 23.1819 16.3628 21.9608 16.3628 20.4546C16.3628 18.9484 15.1418 17.7273 13.6355 17.7273C12.1293 17.7273 10.9082 18.9484 10.9082 20.4546C10.9082 21.9608 12.1293 23.1819 13.6355 23.1819Z" fill="#0E9347"/>
<path d="M46.3621 23.1819C47.8683 23.1819 49.0894 21.9608 49.0894 20.4546C49.0894 18.9484 47.8683 17.7273 46.3621 17.7273C44.8558 17.7273 43.6348 18.9484 43.6348 20.4546C43.6348 21.9608 44.8558 23.1819 46.3621 23.1819Z" fill="#0E9347"/>
<path d="M31.363 19.0909H28.6357C27.8175 19.0909 27.2721 18.5454 27.2721 17.7273C27.2721 16.9091 27.8176 16.3637 28.6357 16.3637H32.7266C33.5448 16.3637 34.0902 15.8182 34.0902 15.0001C34.0902 14.1819 33.5447 13.6365 32.7266 13.6365H31.363C31.363 12.8183 30.8175 12.2729 29.9994 12.2729C29.1812 12.2729 28.6358 12.8185 28.6358 13.6365C26.3176 13.6365 24.5449 15.4092 24.5449 17.7274C24.5449 20.0456 26.3176 21.8183 28.6358 21.8183H31.3631C32.1813 21.8183 32.7267 22.3638 32.7267 23.1819C32.7267 24.0001 32.1812 24.5455 31.3631 24.5455H27.2722C26.454 24.5455 25.9086 25.091 25.9086 25.9091C25.9086 26.7273 26.4541 27.2727 27.2722 27.2727H28.6358C28.6358 28.0909 29.1813 28.6363 29.9994 28.6363C30.8176 28.6363 31.363 28.0908 31.363 27.2727C33.6812 27.2727 35.4539 25.5 35.4539 23.1818C35.4539 20.8636 33.6812 19.0909 31.363 19.0909Z" fill="#89C763"/>
<path d="M35.4537 49.091C40.7256 49.091 44.9992 44.8173 44.9992 39.5455C44.9992 34.2737 40.7256 30 35.4537 30C30.1819 30 25.9082 34.2737 25.9082 39.5455C25.9082 44.8173 30.1819 49.091 35.4537 49.091Z" fill="#FFCA5D"/>
<path d="M47.7271 46.3637C52.999 46.3637 57.2727 42.0901 57.2727 36.8182C57.2727 31.5464 52.999 27.2727 47.7271 27.2727C42.4553 27.2727 38.1816 31.5464 38.1816 36.8182C38.1816 42.0901 42.4553 46.3637 47.7271 46.3637Z" fill="#F6B545"/>
<path d="M47.7271 27.2727C42.4089 27.2727 38.1816 31.5 38.1816 36.8182C38.1816 42.1364 42.4089 46.3637 47.7271 46.3637C53.0454 46.3637 57.2727 42.1364 57.2727 36.8182C57.2727 31.5 53.0454 27.2727 47.7271 27.2727ZM47.7271 43.6364C43.9089 43.6364 40.9089 40.6364 40.9089 36.8182C40.9089 33 43.9089 30 47.7271 30C51.5454 30 54.5453 33 54.5453 36.8182C54.5453 40.6364 51.5454 43.6364 47.7271 43.6364Z" fill="#FFCB5B"/>
<path d="M47.7266 46.2272C53.0448 46.3636 57.2721 41.9999 57.2721 36.8181H57.1357C56.4539 36.8181 55.9084 37.3636 55.7721 38.0454C55.4994 39.9545 54.5448 41.7272 53.1812 42.9545C52.0903 44.0454 50.5903 44.7272 48.9539 44.9999C48.272 44.9999 47.7266 45.5454 47.7266 46.2272Z" fill="#F6B545"/>
<path d="M47.7271 27.4091C42.4089 27.2727 38.1816 31.6364 38.1816 36.8182H38.318C38.9998 36.8182 39.5454 36.2727 39.6816 35.5909C39.9543 33.6818 40.9089 31.9091 42.2725 30.6818C43.3634 29.5909 44.8634 28.9091 46.4998 28.6363C47.1816 28.6364 47.7271 28.0909 47.7271 27.4091Z" fill="#FFE27A"/>
<path d="M41.8627 37.7727C41.8627 33.9545 44.8627 30.9545 48.6809 30.9545C50.3173 30.9545 51.8173 31.5 53.0445 32.5909C51.6809 30.9545 49.9082 30 47.7264 30C43.9082 30 40.9082 33 40.9082 36.8182C40.9082 39 41.8627 40.7727 43.3627 42C42.4082 40.9091 41.8627 39.4091 41.8627 37.7727Z" fill="#F19920"/>
<path d="M51.8187 41.0456C51.6823 41.0456 51.546 41.0456 51.4096 40.9092C51.1369 40.6365 51.1369 40.2274 51.4096 39.9547C52.2278 39.1365 52.6369 37.9092 52.6369 36.8183C52.6369 36.4092 52.9096 36.1365 53.3187 36.1365C53.7278 36.1365 54.0005 36.4092 54.0005 36.8183C54.0005 38.3183 53.455 39.8183 52.5005 40.9092C52.2278 41.0456 51.955 41.0456 51.8187 41.0456Z" fill="#FFCB5B"/>
<path d="M47.7269 40.9092C46.9087 40.9092 46.3633 40.3637 46.3633 39.5456V34.0911C46.3633 33.2729 46.9088 32.7275 47.7269 32.7275C48.545 32.7275 49.0905 33.273 49.0905 34.0911V39.5456C49.0905 40.3637 48.5451 40.9092 47.7269 40.9092Z" fill="#F19920"/>
<path d="M52.773 44.8636C51.8185 41.4545 49.3639 38.7272 46.2275 37.5C45.682 34.3636 43.6366 31.6364 41.0457 30C39.4093 31.7727 38.3184 34.0909 38.3184 36.6818C38.3184 42 42.5457 46.2273 47.8639 46.2273C49.6367 46.3636 51.273 45.8182 52.773 44.8636Z" fill="#F19920"/>
<path d="M43.3628 41.9999C42.4083 40.7726 41.7264 39.2726 41.7264 37.6363C41.7264 35.7272 42.5446 33.9545 43.9082 32.7272C43.6355 32.3181 43.3627 32.0454 43.09 31.7727C41.7264 33 40.9082 34.7727 40.9082 36.8182C40.9083 38.9999 41.8628 40.7726 43.3628 41.9999Z" fill="#E78825"/>
<path d="M46.3633 37.6362V39.5453C46.3633 40.3635 46.9088 40.9089 47.7269 40.9089C48.545 40.9089 49.0905 40.3634 49.0905 39.5453V39.2726C48.2724 38.5907 47.3179 38.0453 46.3633 37.6362Z" fill="#E78825"/>
<path d="M52.7725 44.8637C52.4998 43.9092 52.227 43.091 51.6816 42.2728C50.5907 43.091 49.2272 43.6363 47.7271 43.6363C43.9089 43.6363 40.9089 40.6363 40.9089 36.8181C40.9089 34.7726 41.7272 32.9999 43.0907 31.7726C42.4089 31.0908 41.7271 30.5453 40.9089 30.1362C39.2725 31.9089 38.1816 34.2271 38.1816 36.818C38.1816 42.1362 42.4089 46.3635 47.7271 46.3635C49.6363 46.3637 51.2725 45.8183 52.7725 44.8637Z" fill="#F6B545"/>
<path d="M52.363 43.6365C51.4085 44.3183 50.1812 44.7274 48.9539 45.0001C48.2721 45.1365 47.7266 45.6819 47.7266 46.3637C49.6357 46.3637 51.2721 45.8182 52.7721 44.8637C52.6358 44.4546 52.4994 44.0456 52.363 43.6365Z" fill="#F19920"/>
<path d="M40.9089 30.1365C39.2725 31.9092 38.1816 34.2274 38.1816 36.8183H38.318C38.9998 36.8183 39.5454 36.2728 39.6816 35.591C39.9543 33.6819 40.9089 32.0455 42.1361 30.8183C41.7271 30.6819 41.318 30.4092 40.9089 30.1365Z" fill="#FFCB5B"/>
<path d="M35.4537 49.091C40.7256 49.091 44.9992 44.8173 44.9992 39.5455C44.9992 34.2737 40.7256 30 35.4537 30C30.1819 30 25.9082 34.2737 25.9082 39.5455C25.9082 44.8173 30.1819 49.091 35.4537 49.091Z" fill="#F6B545"/>
<path d="M34.0918 46.3636C34.0918 47.3181 34.2282 48.1363 34.5009 49.0909C34.7736 49.0909 35.1827 49.0909 35.4554 49.0909C40.7736 49.0909 45.0009 44.8636 45.0009 39.5454C45.0009 38.5909 44.8645 37.7727 44.5918 36.8181C44.3191 36.8181 43.91 36.8181 43.6373 36.8181C38.3191 36.8182 34.0918 41.0455 34.0918 46.3636Z" fill="#F19920"/>
<path d="M35.4537 30C30.1355 30 25.9082 34.2273 25.9082 39.5455C25.9082 44.8637 30.1355 49.091 35.4537 49.091C40.7719 49.091 44.9992 44.8636 44.9992 39.5455C44.9992 34.2274 40.7719 30 35.4537 30ZM35.4537 46.3636C31.6355 46.3636 28.6355 43.3636 28.6355 39.5454C28.6355 35.7272 31.6355 32.7272 35.4537 32.7272C39.2719 32.7272 42.2719 35.7272 42.2719 39.5454C42.2719 43.3636 39.2719 46.3636 35.4537 46.3636Z" fill="#FFCB5B"/>
<path d="M35.4551 48.9544C40.7733 49.0908 45.0006 44.7272 45.0006 39.5454H44.8642C44.1824 39.5454 43.6369 40.0909 43.5006 40.7727C43.2279 42.6818 42.2733 44.4545 40.9097 45.6818C39.8188 46.7727 38.3188 47.4545 36.6824 47.7273C36.0006 47.7272 35.4551 48.2726 35.4551 48.9544Z" fill="#F6B545"/>
<path d="M35.4537 30.1364C30.1355 30 25.9082 34.3637 25.9082 39.5455H26.0446C26.7264 39.5455 27.2719 39 27.4082 38.3182C27.6809 36.4091 28.6355 34.6364 29.9991 33.4091C31.09 32.3182 32.59 31.6364 34.2264 31.3636C34.9083 31.3636 35.4537 30.8182 35.4537 30.1364Z" fill="#FFE27A"/>
<path d="M29.5913 40.5C29.5913 36.6818 32.5913 33.6818 36.4095 33.6818C38.0459 33.6818 39.5459 34.2273 40.7731 35.3182C39.4095 33.6818 37.6367 32.7273 35.4549 32.7273C31.6367 32.7273 28.6367 35.7273 28.6367 39.5455C28.6367 41.7273 29.5912 43.5 31.0912 44.7273C30.1368 43.6364 29.5913 42.1364 29.5913 40.5Z" fill="#F19920"/>
<path d="M39.5453 43.7726C39.4089 43.7726 39.2726 43.7726 39.1362 43.6362C38.8635 43.3635 38.8635 42.9544 39.1362 42.6817C39.9544 41.8635 40.3635 40.6362 40.3635 39.5453C40.3635 39.1362 40.6362 38.8635 41.0453 38.8635C41.4544 38.8635 41.7271 39.1362 41.7271 39.5453C41.7271 41.0453 41.1816 42.5453 40.2271 43.6362C39.9543 43.7726 39.6816 43.7726 39.5453 43.7726Z" fill="#FFCB5B"/>
<path d="M35.4554 43.6365C34.6372 43.6365 34.0918 43.091 34.0918 42.2729V36.8184C34.0918 36.0002 34.6373 35.4548 35.4554 35.4548C36.2736 35.4548 36.819 36.0003 36.819 36.8184V42.2729C36.8191 43.091 36.2736 43.6365 35.4554 43.6365Z" fill="#F19920"/>
<path d="M41.7261 36.9545C41.9988 37.7727 42.2716 38.5909 42.2716 39.5454C42.2716 43.3636 39.2716 46.3636 35.4534 46.3636C35.0443 46.3636 34.4989 46.3636 34.0898 46.2272V46.3636C34.0898 47.3181 34.2262 48.1363 34.4989 49.0909C34.7716 49.0909 35.1807 49.0909 35.4534 49.0909C40.7716 49.0909 44.9989 44.8636 44.9989 39.5454C44.9989 38.5909 44.8625 37.7727 44.5898 36.8181C44.3171 36.8181 43.908 36.8181 43.6353 36.8181C42.9533 36.8182 42.4079 36.8182 41.7261 36.9545Z" fill="#F6B545"/>
<path d="M42.2721 57.2729C47.5439 57.2729 51.8176 52.9992 51.8176 47.7274C51.8176 42.4556 47.5439 38.1819 42.2721 38.1819C37.0002 38.1819 32.7266 42.4556 32.7266 47.7274C32.7266 52.9992 37.0002 57.2729 42.2721 57.2729Z" fill="#F6B545"/>
<path d="M42.2721 38.1819C36.9539 38.1819 32.7266 42.4092 32.7266 47.7274C32.7266 53.0456 36.9539 57.2729 42.2721 57.2729C47.5903 57.2729 51.8176 53.0456 51.8176 47.7274C51.8176 42.4092 47.5903 38.1819 42.2721 38.1819ZM42.2721 54.5456C38.4539 54.5456 35.4539 51.5456 35.4539 47.7274C35.4539 43.9092 38.4539 40.9092 42.2721 40.9092C46.0903 40.9092 49.0903 43.9092 49.0903 47.7274C49.0903 51.5456 46.0903 54.5456 42.2721 54.5456Z" fill="#FFCB5B"/>
<path d="M42.2734 57.1364C47.5916 57.2728 51.8189 52.9091 51.8189 47.7273H51.6825C51.0007 47.7273 50.4552 48.2728 50.3189 48.9546C50.0462 50.8637 49.0916 52.6364 47.728 53.8637C46.6372 54.9546 45.1372 55.6364 43.5007 55.9092C42.8189 55.9091 42.2734 56.4545 42.2734 57.1364Z" fill="#F6B545"/>
<path d="M42.2721 38.3183C36.9539 38.1819 32.7266 42.5456 32.7266 47.7274H32.863C33.5448 47.7274 34.0903 47.1819 34.2266 46.5001C34.4993 44.591 35.4539 42.8183 36.8175 41.591C37.9084 40.5001 39.4084 39.8183 41.0448 39.5455C41.7267 39.5456 42.2721 39.0001 42.2721 38.3183Z" fill="#FFE27A"/>
<path d="M36.4097 48.6819C36.4097 44.8637 39.4097 41.8637 43.2279 41.8637C44.8643 41.8637 46.3643 42.4092 47.5915 43.5001C46.2279 41.8637 44.4551 40.9092 42.2733 40.9092C38.4551 40.9092 35.4551 43.9092 35.4551 47.7274C35.4551 49.9092 36.4096 51.6819 37.9096 52.9092C36.9551 51.8183 36.4097 50.3183 36.4097 48.6819Z" fill="#F19920"/>
<path d="M46.3636 51.9545C46.2272 51.9545 46.0909 51.9545 45.9545 51.8181C45.6818 51.5454 45.6818 51.1363 45.9545 50.8636C46.7727 50.0454 47.1818 48.8181 47.1818 47.7272C47.1818 47.3181 47.4545 47.0454 47.8636 47.0454C48.2727 47.0454 48.5454 47.3181 48.5454 47.7272C48.5454 49.2272 47.9999 50.7272 47.0454 51.8181C46.7727 51.9545 46.5 51.9545 46.3636 51.9545Z" fill="#FFCB5B"/>
<path d="M42.2718 51.8183C41.4536 51.8183 40.9082 51.2728 40.9082 50.4547V45.0001C40.9082 44.1819 41.4537 43.6365 42.2718 43.6365C43.09 43.6365 43.6354 44.182 43.6354 45.0001V50.4546C43.6355 51.2728 43.09 51.8183 42.2718 51.8183Z" fill="#F19920"/>
</g>
<defs>
<clipPath id="clip0_338_2910">
<rect width="60" height="60" fill="white"/>
</clipPath>
</defs>
</svg>
