<svg width="60" height="60" viewBox="0 0 60 60" fill="none" xmlns="http://www.w3.org/2000/svg">
<path d="M57.2081 31.3989L43.6486 53.5782C42.9299 54.7538 41.3942 55.1242 40.2185 54.4054L3.62167 32.0315C2.44603 31.3128 2.07565 29.7771 2.79439 28.6015L16.3539 6.42221C17.0727 5.24657 18.6083 4.87619 19.784 5.59492L56.3809 27.9688C57.5565 28.6876 57.9269 30.2233 57.2081 31.3989Z" fill="#EF515C"/>
<path d="M10.0822 35.9857L3.62175 32.036C2.44022 31.3137 2.07867 29.7768 2.79446 28.6059L16.3549 6.42518C17.0772 5.24371 18.6035 4.87555 19.785 5.59789L26.2455 9.54758C25.0747 8.83183 23.5377 9.1934 22.8154 10.3749L9.25494 32.5556C8.53915 33.7264 8.91147 35.2699 10.0822 35.9857Z" fill="#E0344C"/>
<path d="M53.9429 17.0023V42.9981C53.9429 44.376 52.8258 45.493 51.4479 45.493H8.55356C7.17563 45.493 6.05859 44.376 6.05859 42.9981V17.0023C6.05859 15.6244 7.17563 14.5073 8.55356 14.5073H51.4479C52.8258 14.5073 53.9429 15.6244 53.9429 17.0023Z" fill="#EF515C"/>
<path d="M16.1316 45.4985H8.55942C7.17458 45.4985 6.06445 44.3758 6.06445 43.0035V17.006C6.06445 15.6212 7.17458 14.511 8.55942 14.511H16.1316C14.7594 14.511 13.6366 15.6212 13.6366 17.006V43.0035C13.6366 44.3758 14.7594 45.4985 16.1316 45.4985Z" fill="#E0344C"/>
<path d="M6.06445 22.981H53.9427V27.908H6.06445V22.981Z" fill="#FADB43"/>
<path d="M6.06445 22.981H18.5392V27.908H6.06445V22.981Z" fill="#E8C635"/>
<path d="M20.6543 14.5068H25.5814V45.4933H20.6543V14.5068Z" fill="#FADB43"/>
<path d="M20.6543 14.5078H23.1178V45.4943H20.6543V14.5078Z" fill="#E8C635"/>
<path d="M27.4447 21.874L35.7984 30.2277L31.6806 31.0761L30.8322 35.1939L22.4785 26.8403L27.4447 21.874Z" fill="#FADB43"/>
<path d="M22.4785 26.8377L24.5135 24.8027L31.5273 31.8165L30.8337 35.1929L22.4785 26.8377Z" fill="#E8C635"/>
<path d="M23.7574 26.8403L15.4037 35.1939L14.5553 31.0761L10.4375 30.2277L18.7912 21.874L23.7574 26.8403Z" fill="#FADB43"/>
<path d="M18.7946 21.8748L20.8296 23.9098L13.8159 30.9235L10.4395 30.2299L18.7946 21.8748Z" fill="#E8C635"/>
<path d="M35.4387 21.8364L34.8303 23.3054C33.4783 26.5694 29.7363 28.1194 26.4723 26.7674L25.0034 26.1589C23.9517 25.7233 23.4523 24.5176 23.8879 23.4659L24.4963 21.997C25.8483 18.733 29.5903 17.183 32.8543 18.535L34.3233 19.1434C35.3749 19.5791 35.8744 20.7848 35.4387 21.8364Z" fill="#FADB43"/>
<path d="M27.1883 23.1152L26.581 24.5815C26.2103 25.4765 26.5176 26.485 27.2727 27.032C26.9998 26.9636 26.7348 26.8761 26.4682 26.7657L25.002 26.1584C23.9547 25.7246 23.4527 24.5127 23.8866 23.4654L24.4939 21.9991C25.8466 18.7334 29.5898 17.1828 32.8556 18.5356L34.3219 19.1429C34.4743 19.206 34.6186 19.2882 34.7457 19.3854C31.6976 18.5579 28.4307 20.116 27.1883 23.1152Z" fill="#E8C635"/>
<path d="M10.7961 21.8364L11.4045 23.3054C12.7565 26.5694 16.4985 28.1194 19.7625 26.7674L21.2315 26.1589C22.2831 25.7233 22.7826 24.5176 22.3469 23.4659L21.7385 21.997C20.3865 18.733 16.6445 17.183 13.3805 18.535L11.9116 19.1434C10.8599 19.5791 10.3605 20.7848 10.7961 21.8364Z" fill="#FADB43"/>
<path d="M21.6539 25.9171C21.5269 26.0144 21.3824 26.0965 21.2301 26.1596L19.7638 26.7669C16.4981 28.1196 12.7548 26.5692 11.4021 23.3034L10.7948 21.8371C10.361 20.7898 10.8628 19.578 11.9102 19.1441L13.3765 18.5367C13.643 18.4264 13.908 18.3389 14.1809 18.2705C13.4258 18.8175 13.1185 19.826 13.4892 20.721L14.0966 22.1873C15.3389 25.1865 18.6056 26.7447 21.6539 25.9171Z" fill="#E8C635"/>
<path d="M26.1362 25.0966C26.1362 26.7749 24.7874 28.1239 23.1249 28.1239C21.4465 28.1239 20.0977 26.7749 20.0977 25.0966C20.0977 23.4341 21.4465 22.0852 23.1249 22.0852C24.7874 22.0852 26.1362 23.4341 26.1362 25.0966Z" fill="#FADB43"/>
<path d="M24.2647 27.9024C23.9133 28.0413 23.5293 28.123 23.1289 28.123C21.4458 28.123 20.0977 26.7749 20.0977 25.0999C20.0977 23.4331 21.4458 22.085 23.1289 22.085C23.5293 22.085 23.9133 22.1667 24.2647 22.3056C23.1534 22.7468 22.3691 23.8335 22.3691 25.0999C22.3691 26.3745 23.1534 27.4612 24.2647 27.9024Z" fill="#E8C635"/>
<path d="M56.7259 27.4039L54.6051 26.1073V17.0027C54.6051 15.2645 53.1933 13.8439 51.4462 13.8439H34.5456L20.1294 5.03053C18.6439 4.12233 16.6969 4.59194 15.7891 6.07661L11.0408 13.8439H8.55508C6.81687 13.8439 5.39629 15.2645 5.39629 17.0027V23.0771L2.23028 28.2561C1.32208 29.7401 1.78415 31.6838 3.27679 32.5955L5.39629 33.8913V42.9969C5.39629 44.7351 6.81687 46.1557 8.55508 46.1557H25.4569L39.8738 54.9697C40.3757 55.2764 40.9401 55.4341 41.514 55.4341C41.7626 55.4341 42.0129 55.4048 42.2602 55.3454C43.08 55.1472 43.7737 54.6422 44.2132 53.9236L48.962 46.1557H51.4462C53.1933 46.1557 54.6051 44.7351 54.6051 42.9969V36.9256L57.7729 31.7441C58.6806 30.2595 58.211 28.3121 56.7259 27.4039ZM53.2816 17.0027V22.3191H35.9564L36.0514 22.0899C36.6257 20.7026 35.9648 19.1068 34.5779 18.5312L33.1092 17.9229C31.3669 17.2025 29.4488 17.2017 27.7065 17.9238C27.1798 18.1418 26.6936 18.4244 26.2443 18.7518V15.1675H51.4462C52.461 15.1675 53.2816 15.988 53.2816 17.0027ZM21.3172 44.8312V30.2174L22.77 28.7645C23.2126 28.7962 23.208 28.7787 23.4677 28.7643L24.9207 30.2173V44.8312H21.3172ZM34.8287 21.5833L34.2203 23.0516C33.634 24.4673 32.5319 25.5694 31.1166 26.1553C29.7009 26.743 28.1421 26.743 26.7272 26.1553L26.6499 26.1233C26.6505 26.1213 26.6516 26.1195 26.6521 26.1175C26.8267 25.5302 26.8315 24.9219 26.758 24.5733L30.958 22.8351C31.2933 22.6939 31.4522 22.3057 31.311 21.9704C31.1698 21.6263 30.7816 21.4763 30.4462 21.6086L26.3433 23.3116C26.0624 22.8113 25.6675 22.3904 25.203 22.0646C26.1593 19.9735 28.2302 18.7096 30.4152 18.7096C31.1454 18.7096 31.8873 18.85 32.6025 19.1465L34.0712 19.7539C34.7839 20.0495 35.1238 20.8707 34.8287 21.5833ZM23.1316 27.4586C21.8257 27.4586 20.7668 26.4086 20.758 25.1027V25.0939C20.758 23.7992 21.827 22.7469 23.1316 22.7469C24.4281 22.7469 25.4787 23.8159 25.4787 25.0939V25.1027C25.4698 26.4086 24.4198 27.4586 23.1316 27.4586ZM21.3172 20.0032V15.169H24.9207V20.0032C24.5467 20.4664 24.2346 20.9824 23.9838 21.5373C23.7114 21.4585 23.4214 21.4233 23.1316 21.4233C22.8316 21.4233 22.5315 21.4587 22.258 21.538C22.257 21.5382 22.256 21.5388 22.2549 21.5391C22.004 20.9834 21.6916 20.4669 21.3172 20.0032ZM21.0418 22.0667C21.0414 22.067 21.0408 22.0671 21.0404 22.0674C20.5727 22.3939 20.1845 22.8175 19.9021 23.3116L15.7904 21.6086C15.455 21.4763 15.0668 21.6262 14.9257 21.9704C14.7844 22.3057 14.9433 22.6939 15.2874 22.8351L19.4786 24.5733C19.4433 24.741 19.4344 24.9174 19.4344 25.0939C19.4344 25.4552 19.4874 25.7988 19.5842 26.125L19.5111 26.1553C16.5905 27.3651 13.2274 25.9735 12.0176 23.0515L11.4093 21.5833C11.1141 20.8707 11.4541 20.0495 12.1667 19.7548L13.6354 19.1464C16.4919 17.962 19.7677 19.2725 21.0418 22.0667ZM10.8818 23.7421C11.392 24.8814 12.1783 25.8443 13.1686 26.5616L12.3838 27.3465H6.7265V23.7421L10.8818 23.7421ZM14.3491 27.2524C14.4383 27.2936 14.5239 27.3402 14.6151 27.378C16.3018 28.0771 18.2166 28.1236 20.0178 27.3789L20.1854 27.3095C20.4941 27.7236 20.8905 28.0675 21.3399 28.323L15.8051 33.8578L15.2045 30.9428C15.1515 30.6843 14.949 30.4818 14.6901 30.4284L11.7746 29.8269L14.3491 27.2524ZM24.8975 28.3225C25.347 28.0754 25.7436 27.7317 26.0609 27.3174C26.0618 27.3163 26.0623 27.3148 26.0632 27.3137L26.2205 27.3789C27.0917 27.7391 28.0068 27.92 28.9219 27.92C29.837 27.92 30.7521 27.7391 31.6232 27.378C31.7143 27.3403 31.7999 27.2937 31.8889 27.2525L34.4633 29.8269L31.5483 30.4283C31.2893 30.4818 31.0868 30.6843 31.0338 30.9428L30.4328 33.8578L24.8975 28.3225ZM33.0695 26.5617C34.0889 25.8232 34.8946 24.826 35.4032 23.6427H53.2814V27.247H33.7548L33.0695 26.5617ZM16.9184 6.76766C17.2639 6.2024 17.8679 5.89048 18.4857 5.89048C18.8115 5.89048 19.1415 5.97751 19.4392 6.15933L32.009 13.8439H12.5924L16.9184 6.76766ZM8.55508 15.1675H19.9937V18.7518C19.5443 18.4244 19.0581 18.1418 18.5314 17.9237C16.7891 17.2017 14.871 17.2025 13.1287 17.9229L11.66 18.5321C10.2731 19.1068 9.61224 20.7026 10.1865 22.0899L10.3227 22.4186H6.71982V17.0027C6.71982 15.988 7.54034 15.1675 8.55508 15.1675ZM3.96699 31.4667C3.1023 30.9371 2.83019 29.8097 3.35951 28.9471L5.39629 25.6154V32.3405L3.96699 31.4667ZM6.71982 42.9969V28.67H11.0603L9.9707 29.7597C9.59901 30.1314 9.78983 30.7694 10.305 30.8756L13.9964 31.6364L14.7569 35.3278C14.8636 35.8465 15.5027 36.0321 15.8727 35.6621L19.9937 31.541V44.8322H8.55508C7.54034 44.8322 6.71982 44.0116 6.71982 42.9969ZM43.0844 53.2325C42.8289 53.6504 42.426 53.9434 41.95 54.0589C41.4748 54.1726 40.9819 54.0968 40.564 53.8409L27.9934 46.1557H47.4108L43.0844 53.2325ZM51.4462 44.8322H26.2443V31.541L30.3652 35.6621C30.7352 36.0322 31.3743 35.8465 31.4811 35.3278L32.2419 31.6364L35.9329 30.8755C36.4477 30.7694 36.6392 30.1317 36.2672 29.7597L35.0781 28.5706H53.2816V42.9969C53.2816 44.0116 52.461 44.8322 51.4462 44.8322ZM56.6441 31.0531L54.6051 34.3882V27.6583L56.0353 28.5327C56.8978 29.0609 57.171 30.1914 56.6441 31.0531Z" fill="black"/>
<path d="M48.5467 35.8889H38.9645C38.5992 35.8889 38.3027 36.1853 38.3027 36.5507C38.3027 36.916 38.5992 37.2124 38.9645 37.2124H48.5467C48.9121 37.2124 49.2085 36.916 49.2085 36.5507C49.2085 36.1853 48.9121 35.8889 48.5467 35.8889Z" fill="black"/>
<path d="M48.5467 39.4597H38.9645C38.5992 39.4597 38.3027 39.7561 38.3027 40.1215C38.3027 40.4868 38.5992 40.7832 38.9645 40.7832H48.5467C48.9121 40.7832 49.2085 40.4868 49.2085 40.1215C49.2085 39.7561 48.9121 39.4597 48.5467 39.4597Z" fill="black"/>
<path d="M2.42739 4.87381H3.55058V5.99743C3.55058 6.36278 3.847 6.6592 4.21235 6.6592C4.57769 6.6592 4.87411 6.36278 4.87411 5.99743V4.87381H5.99773C6.36308 4.87381 6.6595 4.57739 6.6595 4.21205C6.6595 3.8467 6.36308 3.55028 5.99773 3.55028H4.87411V2.42666C4.87411 2.06131 4.57769 1.76489 4.21235 1.76489C3.847 1.76489 3.55058 2.06131 3.55058 2.42666V3.55028H2.42739C2.06204 3.55028 1.76562 3.8467 1.76562 4.21205C1.76562 4.57739 2.06204 4.87381 2.42739 4.87381Z" fill="black"/>
<path d="M52.3259 54.6786H51.2027V53.5558C51.2027 53.1905 50.9063 52.894 50.5409 52.894C50.1756 52.894 49.8791 53.1905 49.8791 53.5558V54.6786H48.7555C48.3902 54.6786 48.0938 54.975 48.0938 55.3403C48.0938 55.7057 48.3902 56.0021 48.7555 56.0021H49.8791V57.1257C49.8791 57.4911 50.1756 57.7875 50.5409 57.7875C50.9063 57.7875 51.2027 57.4911 51.2027 57.1257V56.0021H52.3259C52.6912 56.0021 52.9876 55.7057 52.9876 55.3403C52.9876 54.975 52.6912 54.6786 52.3259 54.6786Z" fill="black"/>
<path d="M4.7253 53.3823C3.39294 53.3823 2.29883 54.4764 2.29883 55.8088C2.29883 57.1499 3.39294 58.2353 4.7253 58.2353C6.06649 58.2353 7.15177 57.1499 7.15177 55.8088C7.15177 54.4764 6.06649 53.3823 4.7253 53.3823ZM4.7253 56.9117C4.11653 56.9117 3.62236 56.4176 3.62236 55.8088C3.62236 55.2 4.11653 54.7059 4.7253 54.7059C5.33407 54.7059 5.82824 55.2 5.82824 55.8088C5.82824 56.4176 5.33407 56.9117 4.7253 56.9117Z" fill="black"/>
<path d="M44.0866 9.70573C45.4278 9.70573 46.5131 8.6204 46.5131 7.28803C46.5131 5.94689 45.4278 4.85278 44.0866 4.85278C42.7454 4.85278 41.6602 5.94689 41.6602 7.28803C41.6602 8.6204 42.7454 9.70573 44.0866 9.70573ZM44.0866 6.17631C44.6955 6.17631 45.1896 6.67926 45.1896 7.28803C45.1896 7.89686 44.6955 8.3822 44.0866 8.3822C43.4778 8.3822 42.9837 7.89686 42.9837 7.28803C42.9837 6.67925 43.4777 6.17631 44.0866 6.17631Z" fill="black"/>
<path d="M8.76137 10.6634C9.12672 10.6634 9.42314 10.367 9.42314 10.0016V9.75259C9.42314 9.38724 9.12672 9.09082 8.76137 9.09082C8.39603 9.09082 8.09961 9.38724 8.09961 9.75259V10.0016C8.09961 10.367 8.39603 10.6634 8.76137 10.6634Z" fill="black"/>
<path d="M27.0055 4.99785C27.3709 4.99785 27.6673 4.70143 27.6673 4.33608V4.08706C27.6673 3.72171 27.3709 3.42529 27.0055 3.42529C26.6402 3.42529 26.3438 3.72171 26.3438 4.08706V4.33608C26.3438 4.70143 26.6402 4.99785 27.0055 4.99785Z" fill="black"/>
<path d="M34.7477 9.95854C35.113 9.95854 35.4095 9.66212 35.4095 9.29678V9.04775C35.4095 8.6824 35.113 8.38599 34.7477 8.38599C34.3824 8.38599 34.0859 8.6824 34.0859 9.04775V9.29678C34.0859 9.66212 34.3824 9.95854 34.7477 9.95854Z" fill="black"/>
<path d="M56.7008 16.577C57.0662 16.577 57.3626 16.2805 57.3626 15.9152V15.6662C57.3626 15.3008 57.0662 15.0044 56.7008 15.0044C56.3355 15.0044 56.0391 15.3008 56.0391 15.6662V15.9152C56.0391 16.2805 56.3355 16.577 56.7008 16.577Z" fill="black"/>
<path d="M52.3258 4.99785C52.6912 4.99785 52.9876 4.70143 52.9876 4.33608V4.08706C52.9876 3.72171 52.6912 3.42529 52.3258 3.42529C51.9605 3.42529 51.6641 3.72171 51.6641 4.08706V4.33608C51.6641 4.70143 51.9605 4.99785 52.3258 4.99785Z" fill="black"/>
<path d="M21.8864 48.8777C21.521 48.8777 21.2246 49.1741 21.2246 49.5395V49.7885C21.2246 50.1538 21.521 50.4502 21.8864 50.4502C22.2517 50.4502 22.5481 50.1538 22.5481 49.7885V49.5395C22.5481 49.1741 22.2517 48.8777 21.8864 48.8777Z" fill="black"/>
<path d="M30.0016 55.0222C29.6363 55.0222 29.3398 55.3186 29.3398 55.684V55.933C29.3398 56.2984 29.6363 56.5948 30.0016 56.5948C30.367 56.5948 30.6634 56.2984 30.6634 55.933V55.684C30.6634 55.3186 30.367 55.0222 30.0016 55.0222Z" fill="black"/>
<path d="M56.0739 48.7527C55.7085 48.7527 55.4121 49.0491 55.4121 49.4145V49.6643C55.4121 50.0297 55.7085 50.3261 56.0739 50.3261C56.4392 50.3261 56.7356 50.0297 56.7356 49.6643V49.4145C56.7356 49.0491 56.4392 48.7527 56.0739 48.7527Z" fill="black"/>
<path d="M12.9547 51.8264C12.5894 51.8264 12.293 52.1228 12.293 52.4882V52.7372C12.293 53.1026 12.5894 53.399 12.9547 53.399C13.3201 53.399 13.6165 53.1026 13.6165 52.7372V52.4882C13.6165 52.1228 13.3201 51.8264 12.9547 51.8264Z" fill="black"/>
<path d="M3.78447 45.6232V45.3742C3.78447 45.0088 3.48805 44.7124 3.1227 44.7124C2.75736 44.7124 2.46094 45.0088 2.46094 45.3742V45.6232C2.46094 45.9885 2.75736 46.285 3.1227 46.285C3.48805 46.285 3.78447 45.9885 3.78447 45.6232Z" fill="black"/>
</svg>
