<svg width="60" height="60" viewBox="0 0 60 60" fill="none" xmlns="http://www.w3.org/2000/svg">
<path d="M38.4375 45.9375C38.4375 42.8438 35.9062 40.3125 32.8125 40.3125H27.1875C24.0938 40.3125 21.5625 42.8438 21.5625 45.9375V51.5625C21.5625 54.6562 24.0938 57.1875 27.1875 57.1875H32.8125C35.9062 57.1875 38.4375 54.6562 38.4375 51.5625V45.9375Z" fill="#FF8A80"/>
<path d="M34.6875 49.4531V51.5625C34.6875 54.6562 30.2812 57.1875 27.1875 57.1875H32.8125C35.9062 57.1875 38.4375 54.6562 38.4375 51.5625V49.4531H34.6875Z" fill="#F27670"/>
<path d="M25.3125 49.4531V51.5625C25.3125 54.6562 29.7188 57.1875 32.8125 57.1875H27.1875C24.0938 57.1875 21.5625 54.6562 21.5625 51.5625V49.4531H25.3125Z" fill="white"/>
<path d="M21.5625 23.4375H38.4375V49.6875H21.5625V23.4375Z" fill="#80D8FF"/>
<path d="M34.6875 23.4375H38.4375V49.6875H34.6875V23.4375Z" fill="#65C7EA"/>
<path d="M21.5625 23.4375H25.3125V49.6875H21.5625V23.4375Z" fill="white"/>
<path d="M29.9756 9.98999L21.5625 23.4375L25.3125 26.25L30 23.4375L34.6875 26.25L38.4375 23.4375L29.9756 9.98999Z" fill="#FFE0B2"/>
<path d="M29.9756 9.98999L26.25 15.9375H33.75L29.9756 9.98999Z" fill="#80D8FF"/>
<path d="M28.125 2.8125H31.875V6.5625H28.125V2.8125Z" fill="#ECEFF1"/>
<path d="M47.8125 26.4375C47.295 26.4375 46.875 26.0175 46.875 25.5V25.3125C46.875 24.795 47.295 24.375 47.8125 24.375C48.33 24.375 48.75 24.795 48.75 25.3125V25.5C48.75 26.0175 48.33 26.4375 47.8125 26.4375Z" fill="#455A64"/>
<path d="M12.1875 26.4375C11.67 26.4375 11.25 26.0175 11.25 25.5V25.3125C11.25 24.795 11.67 24.375 12.1875 24.375C12.705 24.375 13.125 24.795 13.125 25.3125V25.5C13.125 26.0175 12.705 26.4375 12.1875 26.4375Z" fill="#455A64"/>
<path d="M25.3125 46.875C24.795 46.875 24.375 46.455 24.375 45.9375V45.75C24.375 45.2325 24.795 44.8125 25.3125 44.8125C25.83 44.8125 26.25 45.2325 26.25 45.75V45.9375C26.25 46.455 25.83 46.875 25.3125 46.875Z" fill="#455A64"/>
<path d="M25.3125 43.125C24.795 43.125 24.375 42.705 24.375 42.1875V26.25C24.375 25.7325 24.795 25.3125 25.3125 25.3125C25.83 25.3125 26.25 25.7325 26.25 26.25V42.1875C26.25 42.705 25.83 43.125 25.3125 43.125Z" fill="#455A64"/>
<path d="M32.8125 58.125H27.1875C23.5688 58.125 20.625 55.1812 20.625 51.5625V49.6875C20.625 49.17 21.045 48.75 21.5625 48.75C22.08 48.75 22.5 49.17 22.5 49.6875V51.5625C22.5 54.1462 24.6019 56.25 27.1875 56.25H32.8125C35.3981 56.25 37.5 54.1462 37.5 51.5625V45.9375C37.5 45.42 37.92 45 38.4375 45C38.955 45 39.375 45.42 39.375 45.9375V51.5625C39.375 55.1812 36.4312 58.125 32.8125 58.125Z" fill="#455A64"/>
<path d="M25.3125 27.1874C24.9957 27.1874 24.6844 27.0261 24.5082 26.7318C24.24 26.2874 24.3863 25.7118 24.8307 25.4455L29.5182 22.633C29.8144 22.4549 30.1838 22.4549 30.4819 22.633L34.6294 25.1211L37.1982 23.1936L30 11.1974L22.3669 23.9211C22.1007 24.3674 21.5213 24.508 21.0807 24.2418C20.6363 23.9755 20.4919 23.3999 20.7582 22.9555L29.1957 8.89301C29.5332 8.32863 30.4669 8.32863 30.8025 8.89301L39.24 22.9555C39.4875 23.368 39.3825 23.8986 38.9981 24.1874L35.2482 26.9999C34.9463 27.2305 34.5282 27.2493 34.2038 27.0543L30 24.5305L25.7944 27.0543C25.6444 27.1443 25.4775 27.1874 25.3125 27.1874Z" fill="#455A64"/>
<path d="M21.5625 46.875C21.045 46.875 20.625 46.455 20.625 45.9375V23.4375C20.625 22.92 21.045 22.5 21.5625 22.5C22.08 22.5 22.5 22.92 22.5 23.4375V45.9375C22.5 46.455 22.08 46.875 21.5625 46.875Z" fill="#455A64"/>
<path d="M38.4375 50.625H21.5625C21.045 50.625 20.625 50.205 20.625 49.6875C20.625 49.17 21.045 48.75 21.5625 48.75H37.5V23.4375C37.5 22.92 37.92 22.5 38.4375 22.5C38.955 22.5 39.375 22.92 39.375 23.4375V49.6875C39.375 50.205 38.955 50.625 38.4375 50.625Z" fill="#455A64"/>
<path d="M33.75 16.875H26.25C25.7325 16.875 25.3125 16.455 25.3125 15.9375C25.3125 15.42 25.7325 15 26.25 15H33.75C34.2675 15 34.6875 15.42 34.6875 15.9375C34.6875 16.455 34.2675 16.875 33.75 16.875Z" fill="#455A64"/>
<path d="M57.1875 5.625C56.67 5.625 56.1562 5.205 56.1562 4.6875C56.1562 4.17 56.4825 3.75 57 3.75H57.1875C57.705 3.75 58.125 4.17 58.125 4.6875C58.125 5.205 57.705 5.625 57.1875 5.625Z" fill="#455A64"/>
<path d="M53.4375 5.625H31.875C31.3575 5.625 30.9375 5.205 30.9375 4.6875C30.9375 4.17 31.3575 3.75 31.875 3.75H53.4375C53.955 3.75 54.375 4.17 54.375 4.6875C54.375 5.205 53.955 5.625 53.4375 5.625Z" fill="#455A64"/>
<path d="M3 5.625H2.8125C2.295 5.625 1.875 5.205 1.875 4.6875C1.875 4.17 2.295 3.75 2.8125 3.75C3.33 3.75 3.84375 4.17 3.84375 4.6875C3.84375 5.205 3.5175 5.625 3 5.625Z" fill="#455A64"/>
<path d="M28.125 5.625H6.5625C6.045 5.625 5.625 5.205 5.625 4.6875C5.625 4.17 6.045 3.75 6.5625 3.75H28.125C28.6425 3.75 29.0625 4.17 29.0625 4.6875C29.0625 5.205 28.6425 5.625 28.125 5.625Z" fill="#455A64"/>
<path d="M12.2138 22.4626C12.1969 22.4626 12.18 22.4626 12.1631 22.4626C11.6456 22.4345 11.25 21.992 11.2781 21.4764C11.7769 12.2326 18.8194 4.82448 28.0294 3.85886C28.5263 3.80261 29.0063 4.17761 29.0588 4.69323C29.1131 5.20886 28.74 5.67011 28.2244 5.72261C19.9388 6.59261 13.5994 13.2601 13.1513 21.5776C13.1231 22.0764 12.7088 22.4626 12.2138 22.4626Z" fill="#455A64"/>
<path d="M47.7862 22.4626C47.2893 22.4626 46.8768 22.0745 46.8506 21.5757C46.4025 13.2582 40.0631 6.59074 31.7775 5.72074C31.2618 5.66637 30.8868 5.20699 30.9431 4.69137C30.9937 4.17574 31.455 3.79887 31.9725 3.85699C41.1806 4.82262 48.225 12.2326 48.7237 21.4745C48.7518 21.992 48.3562 22.4326 47.8387 22.4607C47.82 22.4626 47.8031 22.4626 47.7862 22.4626Z" fill="#455A64"/>
<path d="M31.875 7.5H28.125C27.6075 7.5 27.1875 7.08 27.1875 6.5625V2.8125C27.1875 2.295 27.6075 1.875 28.125 1.875H31.875C32.3925 1.875 32.8125 2.295 32.8125 2.8125V6.5625C32.8125 7.08 32.3925 7.5 31.875 7.5ZM29.0625 5.625H30.9375V3.75H29.0625V5.625Z" fill="#455A64"/>
<path d="M34.6875 46.875C34.17 46.875 33.75 46.455 33.75 45.9375V26.25C33.75 25.7325 34.17 25.3125 34.6875 25.3125C35.205 25.3125 35.625 25.7325 35.625 26.25V45.9375C35.625 46.455 35.205 46.875 34.6875 46.875Z" fill="#455A64"/>
</svg>
