<svg width="60" height="60" viewBox="0 0 60 60" fill="none" xmlns="http://www.w3.org/2000/svg">
<g clip-path="url(#clip0_338_2547)">
<path d="M4.68522 20.6245C4.11195 22.6497 2.71256 24.2258 0.937256 24.8458C2.71336 25.4634 4.11444 27.0378 4.68965 29.0626C5.26292 27.0373 6.66229 25.4612 8.43759 24.8413C6.66149 24.2237 5.26043 22.6492 4.68522 20.6245Z" fill="#E4EFF8"/>
<path d="M5.15374 48.7498C4.50882 51.225 2.93455 53.1513 0.937378 53.909C2.93544 54.6638 4.5116 56.5882 5.1587 59.0628C5.80361 56.5876 7.37789 54.6612 9.37506 53.9036C7.37699 53.1487 5.80083 51.2244 5.15374 48.7498Z" fill="#FFCA28"/>
<path d="M54.8414 48.7498C54.1964 51.225 52.6222 53.1513 50.625 53.909C52.6231 54.6638 54.1992 56.5882 54.8463 59.0628C55.4912 56.5876 57.0655 54.6612 59.0627 53.9036C57.0646 53.1487 55.4885 51.2244 54.8414 48.7498Z" fill="#FFCA28"/>
<path d="M56.64 52.187C55.7644 53.9521 54.481 55.1407 53.3002 55.9169C54.0057 56.8002 54.535 57.8777 54.8456 59.0626C55.4909 56.5876 57.0653 54.6618 59.0625 53.9045C58.1635 53.5612 57.3363 52.9748 56.64 52.187Z" fill="#ECB200"/>
<path d="M55.3103 20.6245C54.7371 22.6497 53.3377 24.2258 51.5624 24.8458C53.3385 25.4634 54.7396 27.0378 55.3148 29.0626C55.888 27.0373 57.2874 25.4612 59.0627 24.8413C57.2866 24.2237 55.8856 22.6492 55.3103 20.6245Z" fill="#E4EFF8"/>
<path d="M4.21677 0.937256C3.71515 2.73747 2.49067 4.13845 0.937256 4.68948C2.49137 5.23846 3.71733 6.638 4.22065 8.43776C4.72226 6.63756 5.94673 5.23659 7.50013 4.68554C5.94603 4.13655 4.72008 2.73701 4.21677 0.937256Z" fill="#FFCA28"/>
<path d="M55.7793 0.937256C55.2776 2.73747 54.0532 4.13845 52.4998 4.68948C54.0539 5.23846 55.2798 6.638 55.7831 8.43776C56.2848 6.63756 57.5092 5.23659 59.0626 4.68554C57.5085 4.13655 56.2826 2.73701 55.7793 0.937256Z" fill="#FFCA28"/>
<path d="M32.8125 55.3125V57.1875C32.8125 58.2262 31.9763 59.0625 30.9375 59.0625H29.0625C28.0238 59.0625 27.1875 58.2262 27.1875 57.1875V55.3125H32.8125Z" fill="#C4DCF0"/>
<path d="M35.625 47.8125V53.4374C35.625 54.4762 34.7887 55.3124 33.75 55.3124H26.25C25.2113 55.3124 24.375 54.4762 24.375 53.4374V47.8125H35.625Z" fill="#E4EFF8"/>
<path d="M34.8065 47.8125C33.9449 52.2733 28.3784 53.7328 24.5416 54.2065C24.8347 54.8585 25.4865 55.3125 26.25 55.3125H33.75C34.7887 55.3125 35.625 54.4763 35.625 53.4375V47.8125H34.8065Z" fill="#C4DCF0"/>
<path d="M36.0269 47.2197C36.0269 42.9829 44.0627 39.7062 44.0627 30.8274C44.0627 23.1217 38.4375 16.875 30 16.875C21.5625 16.875 15.9373 23.1217 15.9373 30.8274C15.9373 39.7062 23.9731 42.9829 23.9731 47.2197H36.0269Z" fill="#FFCA28"/>
<path d="M38.5675 19.5667C42.3209 40.141 30.7305 44.3949 23.3258 45.0787C23.7215 45.786 23.974 46.4885 23.974 47.2192H36.026C36.026 42.9825 44.0625 39.7064 44.0625 30.8276C44.0625 26.1969 42.0199 22.1045 38.5675 19.5667Z" fill="#ECB200"/>
<path d="M7.02124 52.187C6.1456 53.9521 4.86222 55.1407 3.6814 55.9169C4.3869 56.8002 4.91623 57.8777 5.22681 59.0626C5.87209 56.5876 7.44656 54.6618 9.44372 53.9045C8.54469 53.5612 7.71752 52.9748 7.02124 52.187Z" fill="#ECB200"/>
<path d="M4.21913 0C3.79754 0.00708658 3.42836 0.282756 3.31644 0.682972C2.88553 2.22381 1.85858 3.3637 0.630338 3.79761C-0.210113 4.08922 -0.210113 5.27857 0.630338 5.57008C1.85813 6.00562 2.88331 7.14887 3.31278 8.69017C3.43864 9.14151 3.82871 9.36924 4.21181 9.37498C4.21431 9.37498 4.21677 9.37505 4.21925 9.37498C4.22175 9.37502 4.22421 9.37683 4.22669 9.37683C4.6098 9.36974 4.99986 9.14148 5.12573 8.69017C5.5552 7.14887 6.58038 6.00562 7.80817 5.57008C8.64862 5.27846 8.64862 4.08912 7.80817 3.79761C6.57988 3.3637 5.55295 2.22381 5.12204 0.682972C5.01011 0.282685 4.64073 0.00662595 4.21913 0ZM55.7806 0.00184252C55.359 0.0089291 54.9898 0.284598 54.8779 0.684815C54.447 2.22566 53.4201 3.36554 52.1918 3.79945C51.3514 4.09107 51.3514 5.28041 52.1918 5.57188C53.4196 6.00743 54.4448 7.15071 54.8743 8.69201C55.0001 9.14332 55.3902 9.37109 55.7733 9.37683C55.7758 9.37683 55.7783 9.37692 55.7807 9.37683C55.7833 9.37686 55.7857 9.3787 55.7882 9.3787C56.1713 9.37161 56.5613 9.14332 56.6872 8.69201C57.1167 7.15071 58.1419 6.00743 59.3697 5.57188C60.2101 5.28027 60.2101 4.09092 59.3697 3.79945C58.1407 3.36554 57.1142 2.22566 56.6833 0.684815C56.5714 0.284527 56.2022 0.00843304 55.7806 0.00184252ZM4.21913 3.19153C4.57794 3.75484 5.11441 4.32088 5.58141 4.68382C4.86593 5.27003 4.50421 5.75337 4.21913 6.1853C3.93404 5.75337 3.57234 5.27003 2.85686 4.68382C3.32386 4.32088 3.86032 3.75484 4.21913 3.19153ZM57.1429 4.68567C56.4274 5.27188 56.0657 5.75518 55.7806 6.18715C55.4955 5.75518 55.1338 5.27187 54.4183 4.68567C54.8854 4.32273 55.4218 3.75668 55.7806 3.19337C56.1394 3.75669 56.6759 4.32273 57.1429 4.68567ZM26.25 57.1911C26.25 58.733 27.4931 60 29.0606 60H30.9392C32.5067 60 33.7499 58.733 33.7499 57.1911L33.7508 56.25C35.3192 56.25 36.5623 54.983 36.5623 53.4411V52.5C37.8126 52.5 37.8126 50.625 36.5623 50.625V48.75C37.6467 48.75 37.7873 47.3428 36.9908 46.9684C37.0359 46.5352 37.2032 46.0795 37.4669 45.5896C40.1116 47.1666 42.5661 48.2788 44.6353 48.7536C46.2442 49.1229 47.6104 49.1267 48.7258 48.6363C49.9215 48.1109 50.5888 47.0975 50.8058 45.8623C51.2152 43.5332 50.1061 40.1053 47.6693 35.9325C47.0462 34.8284 45.3949 35.7911 46.0489 36.8773C48.3844 40.8768 49.2504 43.866 48.9565 45.5382C48.8427 46.1857 48.538 46.6753 47.9714 46.9243C47.4048 47.1734 46.4352 47.2436 45.0601 46.9279C43.2257 46.5068 40.9927 45.5056 38.538 44.0531C39.1858 43.2369 39.946 42.3622 40.7682 41.356C42.8228 38.8414 44.996 35.6264 44.996 30.8311C44.996 29.127 44.7257 27.4984 44.238 25.9733C46.4287 23.2181 48.2486 20.5574 49.6193 18.1217C51.8218 14.2081 52.9434 10.7676 52.3347 8.41716C52.0107 7.16623 51.1782 6.2398 49.9122 5.8483C49.322 5.66582 48.6812 5.60239 47.9915 5.63605C47.3018 5.66794 46.5636 5.80153 45.7778 6.01143C42.6345 6.85158 38.6527 9.01481 34.1307 12.3725C33.1259 13.1163 34.2428 14.6233 35.2476 13.8794C39.6529 10.6085 43.5263 8.54833 46.263 7.81685C47.6313 7.45107 48.6964 7.43541 49.3556 7.63933C50.0147 7.84307 50.3521 8.25555 50.5201 8.88261C50.9351 10.4312 50.1385 13.3748 47.9842 17.2029C46.8149 19.2807 45.2712 21.5696 43.4322 23.954C41.0977 19.1955 36.2907 15.9408 30.0017 15.9395C23.7114 15.9408 18.9052 19.1957 16.5712 23.9559C14.7308 21.5699 13.1856 19.2801 12.0156 17.2011C9.86123 13.3728 9.0647 10.4294 9.47965 8.8808C9.64767 8.2537 9.98503 7.84133 10.6442 7.63749C11.3033 7.43375 12.3684 7.44934 13.7368 7.81501C16.4735 8.54656 20.3468 10.6066 24.7522 13.8776C25.757 14.6215 26.8739 13.1145 25.8691 12.3707C21.347 9.01289 17.3653 6.84978 14.222 6.00959C13.4362 5.79947 12.698 5.66766 12.0083 5.63417C11.3186 5.60225 10.6778 5.66249 10.0875 5.84638C8.82156 6.23785 7.98905 7.16428 7.66511 8.41535C7.05649 10.7659 8.17799 14.2061 10.3805 18.1199C11.7519 20.5569 13.5733 23.2184 15.7655 25.9752C15.2785 27.4993 15.0075 29.1283 15.0075 30.8311C15.0075 35.6264 17.1807 38.8415 19.2353 41.356C20.0571 42.3618 20.8178 43.2354 21.4655 44.0513C19.0095 45.5049 16.775 46.5067 14.9398 46.9279C13.5647 47.2436 12.595 47.1731 12.0284 46.9244C11.4618 46.6753 11.1571 46.1857 11.0433 45.5382C10.7495 43.866 11.6155 40.8766 13.951 36.8773C14.605 35.7912 12.9537 34.8284 12.3305 35.9325C9.8938 40.1052 8.78466 43.5332 9.19401 45.8623C9.41107 47.0975 10.0784 48.1109 11.274 48.6363C12.3895 49.1265 13.7557 49.1228 15.3645 48.7536C17.4349 48.2785 19.892 47.1662 22.5385 45.5878C22.8073 46.0786 22.9672 46.5332 23.0127 46.9665C22.2119 47.3382 22.3514 48.75 23.4375 48.75V50.625C22.1872 50.625 22.1872 52.5 23.4375 52.5V53.4411C23.4375 54.983 24.6806 56.25 26.2491 56.25L26.25 57.1911ZM29.9999 10.3143C29.531 10.3143 29.0624 10.6268 29.0624 11.2518V13.1268C29.0624 14.3771 30.9374 14.3771 30.9374 13.1268V11.2518C30.9374 10.6267 30.4687 10.3143 29.9999 10.3143ZM15.4158 17.6807L16.7415 19.0082C17.6255 19.8923 18.9512 18.5647 18.0671 17.6807L16.7415 16.355C16.5204 16.1339 16.2714 16.0499 16.0365 16.0638C15.332 16.1053 14.7528 17.0176 15.4158 17.6807ZM43.2583 16.3551L41.9308 17.6808C41.0467 18.5649 42.3724 19.8924 43.2565 19.0083L44.5839 17.6808C45.247 17.0177 44.6659 16.1054 43.9614 16.0639C43.7266 16.0497 43.4793 16.134 43.2583 16.3551ZM42.1211 25.6054C40.9955 26.9866 39.7854 28.3895 38.4811 29.7986C35.7366 32.7637 32.8461 35.4919 29.9961 37.8808C27.1487 35.4912 24.2599 32.7584 21.5186 29.7968C20.2159 28.3893 19.0067 26.9887 17.8822 25.6091C19.7632 21.0023 24.163 17.8175 30.0017 17.8162C35.8388 17.8175 40.2393 21.0006 42.1211 25.6054ZM4.67689 19.6893C4.25761 19.6912 3.88887 19.9703 3.77603 20.3741C3.27691 22.1373 2.07424 23.4574 0.621183 23.9648C-0.206095 24.2621 -0.206095 25.4326 0.621183 25.73C2.07487 26.2355 3.28256 27.5598 3.78335 29.3225C4.04697 30.2206 5.31975 30.2206 5.58324 29.3225C6.08236 27.5593 7.28496 26.2374 8.73809 25.73C9.57847 25.4383 9.57847 24.249 8.73809 23.9575C7.28439 23.452 6.08402 22.1368 5.58324 20.3741C5.46986 19.9678 5.0988 19.6877 4.67689 19.6893ZM55.3046 19.6893C54.8853 19.6912 54.5165 19.9703 54.4037 20.3741C53.9046 22.1373 52.7019 23.4574 51.2489 23.9648C50.4216 24.2621 50.4216 25.4326 51.2489 25.73C52.7025 26.2355 53.9102 27.5598 54.411 29.3225C54.6746 30.2206 55.9474 30.2206 56.2109 29.3225C56.71 27.5593 57.9126 26.2374 59.3658 25.73C60.2062 25.4383 60.2062 24.249 59.3658 23.9575C57.9121 23.452 56.7117 22.1368 56.2109 20.3741C56.0975 19.9678 55.7265 19.6877 55.3046 19.6893ZM29.9999 19.6911C27.6969 19.6911 25.4468 20.3926 23.5584 21.7108C22.4968 22.4238 23.6022 24.0059 24.6368 23.2544C26.2106 22.1557 28.0805 21.5661 29.9999 21.5661C31.2757 21.5922 31.2757 19.665 29.9999 19.6911ZM4.67689 22.912C5.25254 23.8009 5.64174 24.2028 6.44382 24.8437C5.75445 25.4032 5.24859 25.8682 4.68421 26.7773C4.0669 25.7722 3.38909 25.2088 2.90995 24.8456C3.56429 24.3499 4.18521 23.752 4.67689 22.912ZM55.3046 22.912C55.8802 23.8009 56.2694 24.2028 57.0715 24.8437C56.3821 25.4032 55.8763 25.8682 55.3119 26.7773C54.6946 25.7722 54.0168 25.2088 53.5376 24.8456C54.192 24.3499 54.8129 23.752 55.3046 22.912ZM21.5625 24.3768C21.0448 24.3768 20.625 24.7966 20.6251 25.3143C20.6251 25.8321 21.0448 26.2518 21.5625 26.2518C22.0803 26.2518 22.5 25.8321 22.5 25.3143C22.5001 24.7966 22.0803 24.3768 21.5625 24.3768ZM43.1283 30.8313C43.1283 34.9328 41.2775 37.7707 39.3143 40.1733C38.4872 41.1855 37.6481 42.1153 36.9211 43.0481C35.1722 41.918 33.3356 40.5857 31.4647 39.0875C34.3297 36.6656 37.1898 33.9446 39.8563 31.0638C40.8837 29.9538 41.8599 28.8484 42.7822 27.7515C43.0014 28.7394 43.1283 29.7657 43.1283 30.8313ZM17.2212 27.7533C18.1426 28.849 19.1172 29.9551 20.1435 31.0639C22.8075 33.942 25.6661 36.6651 28.5296 39.0875C26.6624 40.5812 24.8266 41.9179 23.0805 43.0463C22.3539 42.1142 21.5156 41.1848 20.6891 40.1734C18.726 37.7708 16.8751 34.9328 16.8751 30.8313C16.8751 29.7663 17.0023 28.7407 17.2212 27.7533ZM10.3128 30.0018C9.0625 30.0018 9.0625 31.875 10.3128 31.875H12.1877C13.438 31.875 13.438 30.0018 12.1877 30.0018H10.3128ZM47.8102 30.0018C46.5599 30.0018 46.5599 31.875 47.8102 31.875H49.687C50.9373 31.875 50.9373 30.0018 49.687 30.0018H47.8102ZM29.9999 40.307C31.9926 41.9183 33.9681 43.3633 35.8701 44.5953C35.4669 45.3104 35.1711 46.0597 35.1066 46.875H24.8968C24.8322 46.059 24.5408 45.3067 24.1351 44.5916C26.0346 43.361 28.0108 41.9144 29.9999 40.307ZM44.8952 43.8446C45.878 44.6174 47.037 43.1435 46.0543 42.3706L44.5803 41.2115C44.3346 41.0184 44.0776 40.9649 43.846 41.0064C43.1515 41.1312 42.6842 42.1059 43.4213 42.6855L44.8952 43.8446ZM15.425 41.2187L13.951 42.3796C12.9687 43.153 14.1277 44.627 15.11 43.8536L16.584 42.6926C17.3208 42.1125 16.8539 41.1379 16.1592 41.0135C15.9277 40.9721 15.6706 41.0241 15.425 41.2187ZM6.56467 45.0071C6.14283 45.0052 5.77195 45.2856 5.65832 45.6919C4.86807 48.5879 2.9539 50.7777 0.621183 51.6227C-0.20619 51.9199 -0.20619 53.0923 0.621183 53.3896C2.95485 54.2314 4.87265 56.4178 5.66564 59.3131C5.92076 60.2275 7.21785 60.2275 7.47285 59.3131C8.2631 56.417 10.1773 54.2272 12.51 53.3823C13.3374 53.085 13.3374 51.9127 12.51 51.6153C10.1763 50.7735 8.25844 48.5872 7.46553 45.6919C7.3525 45.2879 6.98406 45.0086 6.56467 45.0071ZM53.4333 45.0071C53.0114 45.0052 52.6405 45.2856 52.5269 45.6919C51.7367 48.5879 49.8225 50.7777 47.4898 51.6227C46.6624 51.9199 46.6624 53.0923 47.4898 53.3896C49.8235 54.2314 51.7412 56.4178 52.5342 59.3131C52.7894 60.2275 54.0864 60.2275 54.3414 59.3131C55.1317 56.417 57.0458 54.2272 59.3786 53.3823C60.206 53.085 60.206 51.9127 59.3786 51.6153C57.0449 50.7736 55.127 48.5872 54.3341 45.6919C54.2211 45.2879 53.8527 45.0086 53.4333 45.0071ZM6.56467 48.4512C7.48899 50.3316 8.56029 51.5279 10.1297 52.5014C8.50857 53.5386 7.48637 54.7652 6.56467 56.5334C5.73279 54.8362 4.45199 53.3153 3.007 52.5088C4.63329 51.4389 5.6547 50.2624 6.56467 48.4512ZM53.4333 48.4512C54.3576 50.3316 55.4289 51.5279 56.9983 52.5014C55.3772 53.5386 54.355 54.7652 53.4333 56.5334C52.6014 54.8362 51.3206 53.3153 49.8756 52.5088C51.5019 51.4389 52.5233 50.2624 53.4333 48.4512ZM25.3125 48.7495H34.6873V50.6245H25.3125V48.7495ZM25.3125 52.4995H34.6873V53.4407C34.6873 53.9762 34.2579 54.3745 33.7516 54.3745H26.2481C25.7418 54.3745 25.3125 53.9762 25.3125 53.4407V52.4995ZM28.1249 56.2495H31.8748V57.1907C31.8748 57.7263 31.4455 58.1245 30.9392 58.1245H29.0606C28.5543 58.1245 28.1249 57.7263 28.1249 57.1907V56.2495Z" fill="#333333"/>
</g>
<defs>
<clipPath id="clip0_338_2547">
<rect width="60" height="60" fill="white"/>
</clipPath>
</defs>
</svg>
