<svg width="60" height="60" viewBox="0 0 60 60" fill="none" xmlns="http://www.w3.org/2000/svg">
<g clip-path="url(#clip0_338_2613)">
<path d="M59.112 46.173C36.1829 49.6086 18.8982 27.4578 19.4603 10.5982L25.6496 10.1606C26.7229 10.0837 27.777 10.4776 28.5382 11.2387L58.7027 41.4044C60.0017 42.7022 60.1386 44.7228 59.112 46.173Z" fill="#FF9A5C"/>
<path d="M59.1121 46.173C58.9919 46.3435 58.8552 46.5055 58.7027 46.658L46.4496 58.9123C44.9981 60.3626 42.6462 60.3626 41.1947 58.9123L11.0555 28.7719C10.2799 27.9964 9.88604 26.9171 9.98097 25.8245L10.903 15.1659C11.101 12.8704 12.9404 11.0598 15.2395 10.8966L17.7173 10.7214L18.5299 10.3574L19.4605 10.5981C21.9504 28.1349 37.1188 45.1909 59.1121 46.173Z" fill="#FF7E27"/>
<path d="M59.1125 46.1726C58.9925 46.3439 58.8549 46.5059 58.7022 46.6586L46.4492 58.9129C44.9983 60.3626 42.6465 60.3626 41.1944 58.9129L11.056 28.772C10.2799 27.9959 9.88589 26.9167 9.98152 25.8248L10.9033 15.166C11.1015 12.8702 12.9405 11.0603 15.2398 10.8971L17.7175 10.7211L18.5298 10.3574L19.4609 10.5987C19.9085 13.7512 20.765 16.8872 21.998 19.9172L18.0251 23.8889C17.8609 24.0532 17.7687 24.2771 17.7699 24.509C17.7699 24.7421 17.8632 24.9646 18.0287 25.1279C18.0287 25.129 19.546 26.6324 19.962 27.0484C20.5517 27.6381 21.3267 27.9341 22.1018 27.9341C22.8768 27.9341 23.653 27.6381 24.2426 27.0484C24.591 26.7 24.8359 26.2874 24.978 25.8481C25.3766 26.5089 25.7949 27.1592 26.232 27.8001L24.0842 29.9479C23.7427 30.2894 23.7427 30.843 24.0842 31.1832C24.2544 31.3545 24.4781 31.4396 24.7019 31.4396C24.9256 31.4396 25.1494 31.3545 25.3196 31.1832L27.1563 29.3477L26.8871 33.5676C26.8568 34.0489 27.2216 34.4649 27.704 34.4952C28.1794 34.5279 28.6025 34.162 28.6317 33.6783L28.7901 31.1843C29.6735 32.2414 30.6128 33.26 31.6046 34.2341L29.6758 35.0989C29.2353 35.297 29.0383 35.8144 29.2353 36.2549C29.4335 36.6954 29.9509 36.8912 30.3902 36.6943L31.7584 36.0812L34.3176 38.6393L33.7023 40.0016C33.5029 40.441 33.6987 40.9596 34.1381 41.1577C34.2547 41.2112 34.377 41.2357 34.497 41.2357C34.8303 41.2357 35.1485 41.0446 35.2941 40.7218L36.3931 38.2919C37.1122 38.8151 37.851 39.3162 38.6097 39.7953L36.2708 42.1342C35.9293 42.4745 35.9293 43.0281 36.2708 43.3695C36.6111 43.711 37.1647 43.711 37.506 43.3695L40.1516 40.7252C40.4009 40.8673 40.6515 41.0084 40.9055 41.1459L39.9628 46.2934C39.8812 46.7457 40.0735 47.1675 40.4558 47.3679C40.5944 47.4402 40.7436 47.4763 40.8951 47.4763C41.1666 47.4763 41.4428 47.3598 41.6655 47.136L45.4508 43.2774C46.1081 43.5385 46.777 43.7832 47.4541 44.0127L42.8915 48.5928C42.7284 48.7571 42.6375 48.9797 42.6386 49.2116C42.6386 49.4436 42.7319 49.665 42.8962 49.8293C42.944 49.876 44.0558 50.9795 44.5057 51.4143C45.2306 52.1124 46.1373 52.4562 47.0905 52.4562C47.6919 52.4562 48.3106 52.3198 48.9132 52.0494C49.5145 51.7791 50.1008 51.3759 50.6344 50.8421C52.4443 49.0311 52.7962 46.8331 51.6099 45.1759C54.008 45.7158 56.5126 46.0561 59.1125 46.1726Z" fill="#FF7E27"/>
<path d="M16.0058 15.96C16.4632 16.0342 17.5853 15.7399 18.3517 15.5015C18.601 15.606 18.8349 15.7587 19.0377 15.9615C19.8743 16.7981 19.8743 18.1547 19.0377 18.9913C18.2011 19.8279 16.8445 19.8279 16.0079 18.9913C15.1712 18.1547 15.1692 16.7967 16.0058 15.96Z" fill="#F3F5FC"/>
<path d="M38.5477 31.8648C38.2435 31.5606 37.7902 31.4721 37.394 31.6387C37.387 31.6411 37.3812 31.6446 37.3742 31.6469L31.6042 34.2341C32.3769 35.7411 34.7265 37.8619 36.3929 38.292L38.7657 33.0419C38.7692 33.0337 38.7727 33.0256 38.7762 33.0174C38.9416 32.6212 38.8518 32.1678 38.5477 31.8648ZM35.0865 36.9367L33.4654 35.3156L36.4185 33.9917L35.0865 36.9367Z" fill="#F9EE80"/>
<path d="M36.3929 38.2921L35.2939 40.722C35.1483 41.0448 34.8301 41.236 34.4968 41.236C34.3768 41.236 34.2545 41.2115 34.1379 41.1579C33.6985 40.9598 33.5027 40.4412 33.7021 40.0019L34.3174 38.6396L31.7581 36.0815L30.39 36.6945C29.9506 36.8915 29.4331 36.6957 29.2351 36.2552C29.0381 35.8147 29.2351 35.2971 29.6756 35.0991L31.6044 34.2344C33.0855 35.6921 34.6844 37.051 36.3929 38.2921Z" fill="#F9D171"/>
<path d="M43.3923 37.2643L42.5275 41.9864C42.0956 42.0728 41.3937 41.8135 40.9053 41.1462L41.1686 39.7081L40.1512 40.7255C39.6192 40.7303 38.8579 40.4252 38.6094 39.7955L41.9144 36.4893C42.1848 36.2189 42.5997 36.156 42.9388 36.3331C43.2781 36.5114 43.4611 36.889 43.3923 37.2643Z" fill="#F9EE80"/>
<path d="M47.0773 41.6194L45.4504 43.2777C44.7488 43.3697 44.1094 43.0798 43.7197 42.5459L45.8291 40.3946C46.1671 40.0507 46.7207 40.045 47.0655 40.383C47.4104 40.7209 47.4152 41.2744 47.0773 41.6194Z" fill="#F9EE80"/>
<path d="M45.4504 43.2778L41.6651 47.1364C41.4424 47.3601 41.1663 47.4767 40.8947 47.4767C40.7432 47.4767 40.594 47.4406 40.4554 47.3683C40.0731 47.1679 39.8808 46.7459 39.9624 46.2938L40.9051 41.1462C41.4377 41.4376 41.9784 41.7173 42.5274 41.9865L42.1288 44.167L43.7195 42.5459C44.2884 42.8022 44.8654 43.0457 45.4504 43.2778Z" fill="#F9D171"/>
<path d="M40.1513 40.7255L37.5058 43.3699C37.1643 43.7114 36.6107 43.7114 36.2705 43.3699C35.929 43.0284 35.929 42.4748 36.2705 42.1346L38.6095 39.7957C39.1152 40.116 39.6292 40.4261 40.1513 40.7255Z" fill="#F9D171"/>
<path d="M43.5899 49.9825C43.3662 49.9825 43.1425 49.8972 42.9718 49.7264C42.6305 49.3851 42.6305 48.8317 42.9718 48.4903L48.3652 43.0971C48.7067 42.7556 49.26 42.7558 49.6014 43.0971C49.9427 43.4385 49.9427 43.9919 49.6014 44.3332L44.2081 49.7264C44.0372 49.8972 43.8135 49.9825 43.5899 49.9825Z" fill="#485C70"/>
<path d="M51.161 44.646L49.6075 43.0914C49.4432 42.9271 49.2206 42.835 48.9887 42.835C48.7556 42.8361 48.533 42.9282 48.3698 43.0925L47.4539 44.0132C48.3663 44.6972 50.8837 45.3684 51.6097 45.1763C51.4803 44.992 51.33 44.815 51.161 44.646Z" fill="#F9EE80"/>
<path d="M51.6097 45.1763C50.1867 44.8569 48.8011 44.4666 47.4539 44.0132L42.8913 48.5932C42.7282 48.7575 42.6373 48.9802 42.6384 49.2121C42.6384 49.444 42.7317 49.6655 42.896 49.8298C42.9438 49.8764 44.0556 50.98 44.5055 51.4147C45.2304 52.1128 46.1371 52.4567 47.0903 52.4567C47.6917 52.4567 48.3104 52.3203 48.913 52.0499C49.5143 51.7795 50.1006 51.3763 50.6343 50.8425C52.4441 49.0314 52.796 46.8334 51.6097 45.1763ZM49.3978 49.606C48.3921 50.6117 46.813 51.2119 45.7198 50.1572C45.4961 49.9404 45.094 49.5442 44.749 49.2039C45.3957 48.5524 48.3163 45.6226 48.9899 44.9467L49.9257 45.8826C51.1039 47.0606 50.4257 48.578 49.3978 49.606Z" fill="#F9D171"/>
<path d="M27.354 21.7958C27.354 21.0709 27.0719 20.3892 26.5592 19.8764L24.9172 18.2344C24.5757 17.8929 24.0221 17.8929 23.6807 18.2344L21.9979 19.9172C22.0643 21.9131 23.6281 24.5523 24.9779 25.8479C25.1235 25.4027 25.162 24.9297 25.0955 24.4692C25.6317 24.3783 26.1467 24.1289 26.5593 23.7152C27.072 23.2024 27.354 22.5206 27.354 21.7958ZM25.3239 22.4799C24.9464 22.8563 24.3334 22.8563 23.9569 22.4799C23.8369 22.3587 22.9303 21.4566 22.9303 21.4566L24.2984 20.0884L25.3239 21.1127C25.5057 21.2957 25.606 21.5381 25.606 21.7957C25.6059 22.0545 25.5057 22.2969 25.3239 22.4799Z" fill="#F9EE80"/>
<path d="M21.9979 19.9172L18.025 23.889C17.8607 24.0533 17.7686 24.2771 17.7698 24.509C17.7698 24.7421 17.8631 24.9646 18.0285 25.1279C18.0285 25.129 19.5459 26.6324 19.9619 27.0484C20.5516 27.6381 21.3265 27.9341 22.1016 27.9341C22.8767 27.9341 23.6528 27.6381 24.2425 27.0484C24.5909 26.7 24.8357 26.2874 24.9779 25.8481C23.8218 23.9378 22.8254 21.9508 21.9979 19.9172ZM23.006 25.8118C22.7647 26.0541 22.4431 26.187 22.1016 26.187C21.7601 26.187 21.4396 26.0541 21.1985 25.8118C20.9583 25.5716 20.3535 24.9715 19.8827 24.5042L21.6925 22.6943C21.83 22.8296 23.006 24.0043 23.006 24.0043C23.5048 24.5018 23.5048 25.3142 23.006 25.8118Z" fill="#F9D171"/>
<path d="M32.4795 25.7965L30.9773 24.2943C30.6335 23.9505 30.08 23.9505 29.7385 24.292L26.2318 27.7998C26.8583 28.9983 28.0515 30.6004 28.7899 31.1842L28.8401 30.4034C29.3517 30.7298 29.9332 30.8952 30.5101 30.8952C31.2607 30.8952 32.0018 30.6167 32.5624 30.0562C33.7136 28.9047 33.6764 26.9934 32.4795 25.7965ZM31.3269 28.8196C30.8654 29.2811 30.0473 29.2427 29.5404 28.7369C29.3365 28.533 28.9763 28.1752 28.6594 27.8616C28.967 27.5505 29.3143 27.1996 29.5113 27.0039C29.6779 26.8373 30.0381 26.4736 30.3609 26.1496L31.2431 27.033C31.7499 27.5399 31.7884 28.3581 31.3269 28.8196Z" fill="#F9EE80"/>
<path d="M28.7898 31.1843L28.6313 33.6783C28.6022 34.1619 28.1791 34.5279 27.7037 34.4952C27.2212 34.4649 26.8564 34.0488 26.8868 33.5675L27.1559 29.3476L25.3193 31.1831C25.1491 31.3545 24.9254 31.4395 24.7016 31.4395C24.4779 31.4395 24.254 31.3545 24.0839 31.1831C23.7424 30.8428 23.7424 30.2892 24.0839 29.9479L26.2317 27.8C27.0231 28.963 27.8773 30.0934 28.7898 31.1843Z" fill="#F9D171"/>
<path d="M16.0058 15.9599C13.1092 18.7203 7.10568 17.5319 4.15478 14.5811C1.22275 11.6491 1.22275 6.87836 4.15478 3.94633C7.08646 1.0143 11.8575 1.01418 14.7894 3.94633C16.4417 5.59856 17.5594 8.20915 17.7172 10.7213L19.4604 10.598C19.27 7.68192 17.9601 4.64465 16.0256 2.71024C12.4118 -0.903472 6.53216 -0.903355 2.91857 2.71024C-0.695024 6.32383 -0.695024 12.2036 2.91857 15.8172C4.66712 17.5657 7.31767 18.8209 10.0085 19.1746C10.5399 19.2445 11.0583 19.279 11.5619 19.279C13.9002 19.279 15.9108 18.5336 17.3265 17.118C17.5431 16.9014 18.0771 16.1265 18.3517 15.5015C17.5732 15.1751 16.6396 15.3262 16.0058 15.9599Z" fill="#485C70"/>
</g>
<defs>
<clipPath id="clip0_338_2613">
<rect width="60" height="60" fill="white"/>
</clipPath>
</defs>
</svg>
