<svg width="60" height="60" viewBox="0 0 60 60" fill="none" xmlns="http://www.w3.org/2000/svg">
<g clip-path="url(#clip0_338_2569)">
<path d="M31.247 42.0693H3.44871C2.02945 42.0693 0.878906 40.9187 0.878906 39.4995V36.2651C0.878906 34.8459 2.02945 33.6953 3.44871 33.6953H31.247C32.6662 33.6953 33.8168 34.8459 33.8168 36.2651V39.4995C33.8168 40.9187 32.6662 42.0693 31.247 42.0693Z" fill="#F1E64C"/>
<path d="M8.79691 42.0695H3.44965C2.02957 42.0695 0.878906 40.9188 0.878906 39.5001V36.265C0.878906 34.8462 2.02969 33.6956 3.44965 33.6956H8.79691C7.37813 33.6956 6.22746 34.8463 6.22746 36.265V39.5001C6.22746 40.9188 7.37824 42.0695 8.79691 42.0695Z" fill="#FFC250"/>
<path d="M33.8169 37.4568V39.5005C33.8169 40.9197 32.6661 42.0693 31.247 42.0693H3.44895C2.02981 42.0693 0.879028 40.9197 0.879028 39.5005V37.4568C0.879028 38.8759 2.02981 40.0267 3.44895 40.0267H31.247C32.6661 40.0267 33.8169 38.8759 33.8169 37.4568Z" fill="#FFC250"/>
<path d="M36.0093 33.6955H8.21092C6.79166 33.6955 5.64111 32.545 5.64111 31.1257V27.8913C5.64111 26.4721 6.79166 25.3215 8.21092 25.3215H36.0093C37.4286 25.3215 38.5791 26.4721 38.5791 27.8913V31.1257C38.5791 32.545 37.4286 33.6955 36.0093 33.6955Z" fill="#F1E64C"/>
<path d="M13.5592 33.6958H8.21198C6.7919 33.6958 5.64124 32.545 5.64124 31.1263V27.8912C5.64124 26.4724 6.79202 25.3218 8.21198 25.3218H13.5592C12.1405 25.3218 10.9898 26.4726 10.9898 27.8912V31.1263C10.9898 32.5451 12.1405 33.6958 13.5592 33.6958Z" fill="#FFC250"/>
<path d="M38.5792 29.083V31.1268C38.5792 32.5459 37.4285 33.6955 36.0093 33.6955H8.21128C6.79214 33.6955 5.64136 32.5459 5.64136 31.1268V29.083C5.64136 30.5021 6.79214 31.6529 8.21128 31.6529H36.0093C37.4285 31.6529 38.5792 30.5021 38.5792 29.083Z" fill="#FFC250"/>
<path d="M32.6606 25.3215H4.86229C3.44303 25.3215 2.29248 24.1709 2.29248 22.7517V19.5173C2.29248 18.0981 3.44303 16.9475 4.86229 16.9475H32.6606C34.0798 16.9475 35.2304 18.0981 35.2304 19.5173V22.7517C35.2304 24.1709 34.0798 25.3215 32.6606 25.3215Z" fill="#F1E64C"/>
<path d="M10.2105 25.322H4.86322C3.44314 25.322 2.29248 24.1712 2.29248 22.7525V19.5175C2.29248 18.0987 3.44326 16.948 4.86322 16.948H10.2105C8.7917 16.948 7.64104 18.0988 7.64104 19.5175V22.7525C7.64092 24.1712 8.7917 25.322 10.2105 25.322Z" fill="#FFC250"/>
<path d="M35.2304 20.709V22.7527C35.2304 24.1719 34.0796 25.3215 32.6604 25.3215H4.8624C3.44326 25.3215 2.29248 24.1719 2.29248 22.7527V20.709C2.29248 22.1281 3.44326 23.2789 4.8624 23.2789H32.6604C34.0796 23.2789 35.2304 22.1281 35.2304 20.709Z" fill="#FFC250"/>
<path d="M33.5907 50.4431H5.79246C4.3732 50.4431 3.22266 49.2925 3.22266 47.8733V44.6389C3.22266 43.2196 4.3732 42.0691 5.79246 42.0691H33.5907C35.01 42.0691 36.1605 43.2196 36.1605 44.6389V47.8733C36.1605 49.2925 35.01 50.4431 33.5907 50.4431Z" fill="#F1E64C"/>
<path d="M36.1607 45.8306V47.8743C36.1607 49.2935 35.0099 50.4431 33.5907 50.4431H5.7927C4.37356 50.4431 3.22278 49.2935 3.22278 47.8743V45.8306C3.22278 47.2497 4.37356 48.4005 5.7927 48.4005H33.5907C35.0099 48.4005 36.1607 47.2497 36.1607 45.8306Z" fill="#FFC250"/>
<path d="M11.1407 50.4436H5.7934C4.37332 50.4436 3.22266 49.2928 3.22266 47.8741V44.639C3.22266 43.2202 4.37344 42.0696 5.7934 42.0696H11.1407C9.72188 42.0696 8.57121 43.2204 8.57121 44.639V47.8741C8.57121 49.2928 9.72199 50.4436 11.1407 50.4436Z" fill="#FFC250"/>
<path d="M31.8329 58.8171H4.03465C2.61539 58.8171 1.46484 57.6666 1.46484 56.2473V53.0129C1.46484 51.5937 2.61539 50.4431 4.03465 50.4431H31.8329C33.2522 50.4431 34.4027 51.5937 34.4027 53.0129V56.2473C34.4027 57.6666 33.2522 58.8171 31.8329 58.8171Z" fill="#F1E64C"/>
<path d="M34.4029 54.2046V56.2483C34.4029 57.6675 33.2521 58.8171 31.8329 58.8171H4.03489C2.61575 58.8171 1.46497 57.6675 1.46497 56.2483V54.2046C1.46497 55.6237 2.61575 56.7745 4.03489 56.7745H31.8329C33.2521 56.7745 34.4029 55.6237 34.4029 54.2046Z" fill="#FFC250"/>
<path d="M9.38285 58.8176H4.03559C2.61551 58.8176 1.46484 57.6668 1.46484 56.2481V53.0131C1.46484 51.5943 2.61563 50.4436 4.03559 50.4436H9.38285C7.96406 50.4436 6.8134 51.5944 6.8134 53.0131V56.2481C6.8134 57.6668 7.96418 58.8176 9.38285 58.8176Z" fill="#FFC250"/>
<path d="M42.6522 58.8175C51.7477 58.8175 59.1211 51.4441 59.1211 42.3486C59.1211 33.253 51.7477 25.8796 42.6522 25.8796C33.5566 25.8796 26.1832 33.253 26.1832 42.3486C26.1832 51.4441 33.5566 58.8175 42.6522 58.8175Z" fill="#F1E64C"/>
<path d="M44.0449 58.7588C43.5864 58.7984 43.1215 58.8176 42.6519 58.8176C33.5561 58.8176 26.1832 51.4447 26.1832 42.3488C26.1832 33.253 33.5561 25.8801 42.6519 25.8801C43.1216 25.8801 43.5864 25.8991 44.0449 25.9388C35.5996 26.6449 28.9676 33.721 28.9676 42.3488C28.9676 50.9766 35.5996 58.0528 44.0449 58.7588Z" fill="#FFC250"/>
<path d="M42.6521 53.4695C48.7939 53.4695 53.7729 48.4906 53.7729 42.3488C53.7729 36.207 48.7939 31.228 42.6521 31.228C36.5103 31.228 31.5314 36.207 31.5314 42.3488C31.5314 48.4906 36.5103 53.4695 42.6521 53.4695Z" fill="#FFC250"/>
<path d="M23.129 36.33V22.772H25.4465C28.2602 22.772 30.0187 19.7259 28.6118 17.2893L21.1837 4.42496C19.7769 1.98863 16.2603 1.98852 14.8534 4.42484L7.42449 17.2891C6.01742 19.7258 7.77582 22.772 10.5896 22.772H12.9083V36.33C12.9083 37.6003 13.938 38.63 15.2083 38.63H20.829C22.0993 38.63 23.129 37.6002 23.129 36.33Z" fill="#95D6A4"/>
<path d="M17.3243 38.6303H15.2081C13.9382 38.6303 12.9088 37.6009 12.9088 36.3311V22.7715H10.5893C7.77556 22.7715 6.01693 19.7261 7.42505 17.2889L14.8527 4.42488C15.5562 3.20695 16.7872 2.59863 18.0182 2.59863C17.1936 2.59863 16.3689 3.20695 15.8984 4.42488L10.922 17.2889C9.97857 19.7261 11.1574 22.7715 13.0418 22.7715H13.9947C14.9824 22.7715 15.7831 23.5723 15.7831 24.5599V36.3298C15.7831 37.6001 16.4736 38.6303 17.3243 38.6303Z" fill="#78C2A4"/>
<path d="M43.7489 19.3223L43.6817 19.0714C43.4446 18.1866 43.933 17.2693 44.7995 16.9722L47.4648 16.0584C48.4194 15.7311 49.4516 16.2808 49.7128 17.2556L49.8798 17.8789C50.141 18.8537 49.5219 19.8459 48.5316 20.0397L45.7665 20.581C44.8677 20.7572 43.986 20.2071 43.7489 19.3223Z" fill="#F7F493"/>
<path d="M39.4912 11.8132L39.3076 11.6296C38.6599 10.9819 38.6243 9.94329 39.2261 9.25282L41.0775 7.12879C41.7406 6.36801 42.9093 6.32793 43.6229 7.04161L44.0792 7.49793C44.7929 8.21161 44.7528 9.38032 43.992 10.0434L41.868 11.8947C41.1777 12.4966 40.139 12.4609 39.4912 11.8132Z" fill="#F7F493"/>
<path d="M32.0494 7.43911L31.7985 7.37184C30.9137 7.13477 30.3636 6.25305 30.5396 5.35411L31.0809 2.58907C31.2747 1.5986 32.2669 0.979615 33.2417 1.24083L33.865 1.40782C34.8398 1.66903 35.3895 2.70122 35.0622 3.65583L34.1484 6.32114C33.8515 7.18774 32.9343 7.67618 32.0494 7.43911Z" fill="#F7F493"/>
<path d="M55.2819 30.4559C54.9491 30.1025 54.3928 30.0861 54.0395 30.4188C53.6862 30.7516 53.6695 31.3079 54.0025 31.6612C56.7364 34.5636 58.2422 38.3591 58.2422 42.3483C58.2422 50.9451 51.2482 57.939 42.6516 57.939C34.0555 57.939 27.0621 50.9451 27.0621 42.3483C27.0621 33.7523 34.0555 26.7589 42.6516 26.7589C45.8254 26.7589 48.8786 27.7066 51.4811 29.4994C51.8808 29.7747 52.4282 29.6741 52.7034 29.2743C52.9789 28.8746 52.878 28.3273 52.4783 28.0519C49.5812 26.0561 46.1831 25.0011 42.6517 25.0011C41.2209 25.0011 39.8306 25.1764 38.4997 25.5045C37.8557 24.8306 36.963 24.4423 36.0095 24.4423H35.6643C35.9468 23.9423 36.109 23.3655 36.109 22.7513V19.5169C36.109 17.6152 34.5619 16.0681 32.6602 16.0681H28.9213L21.945 3.98562C21.1248 2.56589 19.6568 1.71851 18.0175 1.71851C18.0172 1.71851 18.0168 1.71851 18.0165 1.71851C16.3782 1.71886 14.9112 2.56601 14.0924 3.98456L7.11504 16.0681H4.86211C2.96039 16.0681 1.41328 17.6152 1.41328 19.5169V22.7513C1.41328 24.653 2.96039 26.2001 4.86211 26.2001H5.20723C4.92469 26.7002 4.7625 27.277 4.7625 27.8912V31.1255C4.7625 31.7397 4.92469 32.3165 5.20723 32.8166H3.44883C1.54711 32.8166 0 34.3632 0 36.2642V39.4986C0 41.1862 1.21863 42.5935 2.82199 42.8893C2.51859 43.4026 2.34375 44.0003 2.34375 44.6385V47.8729C2.34375 48.567 2.55059 49.2134 2.90484 49.7551C1.5566 50.2241 0.585938 51.5068 0.585938 53.0128V56.2471C0.585938 58.1489 2.13305 59.696 4.03477 59.696H31.8328C33.1383 59.696 34.2983 58.9565 34.8819 57.8562C37.2206 59.0329 39.8599 59.6968 42.6516 59.6968C52.2176 59.6968 60 51.9144 60 42.3483C60 37.9092 58.3245 33.6857 55.2819 30.4559ZM4.10156 47.8729V44.6385C4.10156 43.7061 4.86012 42.9475 5.79258 42.9475H25.3158C25.3961 45.301 25.947 47.5369 26.8778 49.5639H5.79258C4.86012 49.5639 4.10156 48.8054 4.10156 47.8729ZM36.2636 26.2201C32.9366 27.5424 30.1131 29.8661 28.1652 32.8167H24.0082V26.2003H32.6602H36.0094C36.0954 26.2003 36.1801 26.2074 36.2636 26.2201ZM34.3512 19.5171V22.7514C34.3512 23.6839 33.5926 24.4425 32.6602 24.4425H24.0082V23.6511H25.4461C27.0854 23.6511 28.5533 22.8034 29.3729 21.3833C30.0112 20.2775 30.1499 19.0052 29.7938 17.8259H32.6602C33.5926 17.826 34.3512 18.5846 34.3512 19.5171ZM3.17109 22.7514V19.5171C3.17109 18.5846 3.92965 17.826 4.86211 17.826H6.24188C6.02098 18.5623 5.99039 19.3432 6.16102 20.1002C6.26766 20.5737 6.73816 20.8712 7.2116 20.7644C7.68516 20.6576 7.98258 20.1873 7.87582 19.7138C7.76883 19.2389 7.73578 18.5089 8.18613 17.7285L15.6148 4.86358C16.116 3.99522 17.014 3.47667 18.017 3.47644H18.0175C19.0214 3.47644 19.9207 3.99546 20.4229 4.86487L27.8503 17.7287C28.3522 18.5975 28.3523 19.6353 27.8505 20.5046C27.3486 21.3741 26.4498 21.8933 25.4461 21.8933H23.1293C22.6439 21.8933 22.2504 22.2868 22.2504 22.7722V36.3296C22.2504 37.1133 21.6128 37.7511 20.8289 37.7511H15.2086C14.4248 37.7511 13.7871 37.1135 13.7871 36.3296V22.7722C13.7871 22.2868 13.3936 21.8933 12.9082 21.8933H10.5902C10.2564 21.8933 9.93434 21.8377 9.63316 21.7283C9.17672 21.5622 8.6727 21.7976 8.50688 22.2539C8.34094 22.7101 8.57625 23.2143 9.03246 23.3801C9.52676 23.5599 10.0508 23.6511 10.5902 23.6511H12.0293V24.4425H8.21133H4.86211C3.92965 24.4425 3.17109 23.6839 3.17109 22.7514ZM6.52031 31.1257V27.8913C6.52031 26.9588 7.27887 26.2003 8.21133 26.2003H12.0293V32.8167H8.21133C7.27887 32.8167 6.52031 32.0581 6.52031 31.1257ZM1.75781 39.4987V36.2643C1.75781 35.3326 2.51637 34.5745 3.44883 34.5745H8.21133H12.0293V36.3296C12.0293 38.0826 13.4555 39.5089 15.2086 39.5089H20.8289C22.5819 39.5089 24.0082 38.0827 24.0082 36.3296V34.5745H27.1468C26.1332 36.5881 25.5007 38.8248 25.3439 41.1897H5.79258H3.44883C2.51637 41.1897 1.75781 40.4312 1.75781 39.4987ZM31.8328 57.9382H4.03477C3.1023 57.9382 2.34375 57.1796 2.34375 56.2471V53.0128C2.34375 52.0803 3.1023 51.3217 4.03477 51.3217H5.79258H27.81C29.1976 53.6085 31.0986 55.5505 33.3517 56.9871C33.0751 57.5531 32.4925 57.9382 31.8328 57.9382Z" fill="black"/>
<path d="M44.387 41.4363C44.076 41.3458 43.7574 41.2506 43.4399 41.1512V37.2567C44.3835 37.3962 44.9472 37.7936 44.9897 37.8245C45.3759 38.1131 45.9234 38.0366 46.2156 37.652C46.5091 37.2654 46.4338 36.714 46.0473 36.4205C45.9907 36.3775 45.0195 35.6578 43.4399 35.488V34.7288C43.4399 34.2434 43.0465 33.8499 42.561 33.8499C42.0755 33.8499 41.6821 34.2434 41.6821 34.7288V35.5444C41.5125 35.573 41.3393 35.6087 41.1622 35.6527C39.6805 36.0203 38.5743 37.1508 38.3439 38.5328C38.1496 39.6986 38.6251 40.8079 39.585 41.4279C40.1129 41.7689 40.7732 42.0817 41.6821 42.4135V47.3465C40.7697 47.308 40.1665 47.1544 39.1739 46.6195C38.7464 46.3893 38.2133 46.5491 37.9833 46.9765C37.753 47.4038 37.9127 47.9368 38.3401 48.1671C39.6523 48.874 40.5018 49.0637 41.6822 49.1053V49.9684C41.6822 50.4538 42.0756 50.8473 42.5611 50.8473C43.0466 50.8473 43.44 50.4538 43.44 49.9684V49.0483C45.7554 48.7024 47.1663 47.0585 47.393 45.4376C47.648 43.6127 46.468 42.0422 44.387 41.4363ZM40.5388 39.9512C40.0097 39.6095 40.0402 39.0475 40.0778 38.8217C40.1693 38.2725 40.6134 37.5997 41.5854 37.3587C41.618 37.3506 41.6499 37.3439 41.682 37.3365V40.5275C41.2461 40.3463 40.8533 40.1544 40.5388 39.9512ZM45.6519 45.1942C45.5284 46.0772 44.745 46.971 43.4398 47.2599V42.9893C43.5874 43.0336 43.7384 43.0785 43.8955 43.1242C45.1449 43.4878 45.7849 44.2423 45.6519 45.1942Z" fill="black"/>
<path d="M42.6521 30.3489C36.0355 30.3489 30.6526 35.7319 30.6526 42.3485C30.6526 48.9652 36.0355 54.3481 42.6521 54.3481C49.2688 54.3481 54.6516 48.965 54.6516 42.3484C54.6516 35.7318 49.2688 30.3489 42.6521 30.3489ZM42.6521 52.5902C37.0049 52.5902 32.4104 47.9958 32.4104 42.3484C32.4104 36.701 37.0049 32.1066 42.6521 32.1066C48.2994 32.1066 52.8938 36.701 52.8938 42.3484C52.8938 47.9958 48.2994 52.5902 42.6521 52.5902Z" fill="black"/>
<path d="M42.8326 19.2987L42.8997 19.5496C42.8998 19.5496 42.8998 19.5497 42.8998 19.5497C43.2109 20.7103 44.2713 21.4923 45.4344 21.4923C45.5998 21.4923 45.7675 21.4765 45.9352 21.4435L48.7004 20.9022C49.4107 20.7633 50.0377 20.3313 50.4208 19.7174C50.8039 19.1034 50.9162 18.3504 50.7288 17.6515L50.5618 17.0279C50.3744 16.3289 49.9006 15.7329 49.262 15.3928C48.6231 15.0526 47.8643 14.9922 47.1797 15.2269L44.5145 16.1406C43.2161 16.5859 42.4774 17.973 42.8326 19.2987ZM45.0847 17.8036L47.7499 16.8899C47.9785 16.8113 48.2223 16.8308 48.4358 16.9445C48.6493 17.0581 48.8014 17.2495 48.864 17.4831L49.031 18.1066C49.0936 18.3402 49.0576 18.5818 48.9295 18.7871C48.8014 18.9924 48.6002 19.131 48.3629 19.1775L45.5977 19.7188C45.1525 19.8056 44.7148 19.5316 44.5979 19.095L44.5306 18.844C44.4136 18.4071 44.6568 17.9502 45.0847 17.8036Z" fill="black"/>
<path d="M38.8696 12.4349C39.3778 12.943 40.0502 13.1998 40.7243 13.1998C41.3377 13.1998 41.9524 12.987 42.4454 12.5573L44.5694 10.706C45.1149 10.2306 45.442 9.54305 45.4668 8.81977C45.4917 8.09649 45.2123 7.38821 44.7007 6.87657L44.2442 6.42012C43.7326 5.90848 43.0246 5.6284 42.3009 5.65395C41.5777 5.67868 40.8902 6.00586 40.4148 6.55137L38.5633 8.6754C37.6617 9.71004 37.7155 11.2807 38.6859 12.2513L38.8696 12.4349ZM39.8886 9.8304L41.74 7.70637C41.8988 7.52403 42.1195 7.41903 42.3614 7.41083C42.3716 7.41047 42.3819 7.41024 42.3921 7.41024C42.6223 7.41024 42.8377 7.49942 43.0014 7.66313L43.4579 8.11958C43.6289 8.29055 43.7185 8.5179 43.7102 8.75965C43.702 9.00141 43.5969 9.22208 43.4146 9.38098L41.2905 11.2323C40.95 11.5293 40.4325 11.5116 40.1127 11.1919L39.9291 11.0084C39.6093 10.6886 39.5916 10.1712 39.8886 9.8304Z" fill="black"/>
<path d="M31.5712 8.22095L31.822 8.2881C32.0465 8.34822 32.2728 8.37704 32.4959 8.37704C33.5904 8.37704 34.6102 7.6847 34.9799 6.60622L35.8936 3.94103C36.1284 3.25642 36.0678 2.49751 35.7277 1.85872C35.3875 1.22005 34.7915 0.746262 34.0926 0.558997L33.4693 0.392004C32.7701 0.204622 32.0172 0.316887 31.4031 0.70009C30.7892 1.08318 30.3573 1.71025 30.2184 2.4204L29.6771 5.18556C29.4135 6.53228 30.2455 7.86564 31.5712 8.22095ZM31.4022 5.52306L31.9435 2.75802C31.9899 2.52072 32.1285 2.31939 32.3337 2.19142C32.473 2.10447 32.6293 2.05993 32.7885 2.05993C32.8636 2.05993 32.9393 2.0699 33.0143 2.08993L33.6377 2.25693C33.8713 2.3195 34.0626 2.47161 34.1763 2.68501C34.29 2.89853 34.3095 3.14216 34.231 3.37103L33.3173 6.03622C33.1707 6.46384 32.7139 6.707 32.277 6.59029C32.277 6.59029 32.277 6.59029 32.2769 6.59029L32.0261 6.52314C31.5893 6.40595 31.3154 5.96673 31.4022 5.52306Z" fill="black"/>
</g>
<defs>
<clipPath id="clip0_338_2569">
<rect width="60" height="60" fill="white"/>
</clipPath>
</defs>
</svg>
