<svg width="50" height="74" viewBox="0 0 50 74" fill="none" xmlns="http://www.w3.org/2000/svg">
<path fill-rule="evenodd" clip-rule="evenodd" d="M25 36.8671C25 30.079 30.5019 24.5762 37.2889 24.5762C44.0759 24.5762 49.5778 30.079 49.5778 36.8671C49.5778 43.6552 44.0759 49.158 37.2889 49.158C30.5019 49.158 25 43.6552 25 36.8671Z" fill="#1ABCFE"/>
<path fill-rule="evenodd" clip-rule="evenodd" d="M0.423828 61.4472C0.423828 54.6591 5.92574 49.1562 12.7127 49.1562H25.0016V61.4472C25.0016 68.2352 19.4997 73.7381 12.7127 73.7381C5.92574 73.7381 0.423828 68.2352 0.423828 61.4472Z" fill="#0ACF83"/>
<path fill-rule="evenodd" clip-rule="evenodd" d="M25.0022 -0.00683594V24.575H37.2911C44.0781 24.575 49.58 19.0722 49.58 12.2841C49.58 5.49598 44.0781 -0.00683594 37.2911 -0.00683594H25.0022Z" fill="#FF7262"/>
<path fill-rule="evenodd" clip-rule="evenodd" d="M0.423828 12.2841C0.423828 19.0722 5.92574 24.575 12.7127 24.575H25.0016V-0.00683594H12.7127C5.92574 -0.00683594 0.423828 5.49598 0.423828 12.2841Z" fill="#F24E1E"/>
<path fill-rule="evenodd" clip-rule="evenodd" d="M0.423828 36.8671C0.423828 43.6552 5.92574 49.158 12.7127 49.158H25.0016V24.5762H12.7127C5.92574 24.5762 0.423828 30.079 0.423828 36.8671Z" fill="#A259FF"/>
</svg>
