<svg width="188" height="45" viewBox="0 0 188 45" fill="none" xmlns="http://www.w3.org/2000/svg">
<path d="M39.6291 35.3267V32.1324L52.3315 14.3093H39.6042V9.87211H59.0929V13.0664L46.378 30.8895H59.1177V35.3267H39.6291ZM68.5917 35.6871C67.3737 35.6871 66.2882 35.4758 65.3353 35.0532C64.3825 34.6224 63.6284 33.9885 63.0733 33.1516C62.5264 32.3064 62.253 31.2541 62.253 29.9946C62.253 28.934 62.4477 28.0433 62.8371 27.3224C63.2266 26.6015 63.7569 26.0215 64.428 25.5823C65.0992 25.1432 65.8615 24.8117 66.715 24.588C67.5767 24.3643 68.4799 24.2069 69.4245 24.1157C70.5348 23.9997 71.4297 23.892 72.1091 23.7926C72.7886 23.6849 73.2816 23.5274 73.5882 23.3203C73.8948 23.1131 74.0481 22.8065 74.0481 22.4005V22.3259C74.0481 21.5388 73.7995 20.9298 73.3023 20.4989C72.8134 20.068 72.1174 19.8526 71.2142 19.8526C70.2614 19.8526 69.5032 20.0639 68.9397 20.4865C68.3763 20.9008 68.0034 21.4228 67.8211 22.0525L62.9241 21.6548C63.1727 20.4947 63.6616 19.4921 64.3907 18.647C65.1199 17.7935 66.0604 17.1389 67.2121 16.6832C68.3722 16.2192 69.7145 15.9872 71.2391 15.9872C72.2997 15.9872 73.3147 16.1115 74.2842 16.36C75.2619 16.6086 76.1278 16.9939 76.8819 17.5159C77.6442 18.038 78.2449 18.7091 78.6841 19.5294C79.1232 20.3415 79.3428 21.3151 79.3428 22.4502V35.3267H74.3215V32.6793H74.1723C73.8658 33.2759 73.4556 33.802 72.9419 34.2578C72.4281 34.7052 71.8108 35.0574 71.09 35.3142C70.3691 35.5628 69.5363 35.6871 68.5917 35.6871ZM70.1081 32.033C70.8869 32.033 71.5747 31.8797 72.1713 31.5731C72.7679 31.2582 73.236 30.8357 73.5758 30.3054C73.9155 29.7751 74.0853 29.1743 74.0853 28.5032V26.4772C73.9196 26.5849 73.6918 26.6844 73.4017 26.7755C73.12 26.8584 72.801 26.9371 72.4447 27.0117C72.0884 27.078 71.7321 27.1401 71.3758 27.1981C71.0195 27.2478 70.6964 27.2934 70.4064 27.3348C69.7849 27.426 69.2422 27.571 68.7782 27.7698C68.3141 27.9687 67.9537 28.238 67.6968 28.5777C67.44 28.9092 67.3115 29.3235 67.3115 29.8206C67.3115 30.5415 67.5726 31.0925 68.0946 31.4737C68.6249 31.8465 69.296 32.033 70.1081 32.033ZM99.3348 21.6796L94.4875 21.9779C94.4046 21.5636 94.2265 21.1908 93.9531 20.8593C93.6796 20.5196 93.3192 20.2503 92.8717 20.0514C92.4326 19.8443 91.9064 19.7407 91.2933 19.7407C90.4729 19.7407 89.7811 19.9147 89.2176 20.2627C88.6542 20.6025 88.3724 21.0582 88.3724 21.6299C88.3724 22.0857 88.5547 22.471 88.9193 22.7858C89.2839 23.1007 89.9095 23.3534 90.7961 23.544L94.2514 24.24C96.1074 24.6212 97.4912 25.2343 98.4026 26.0795C99.3141 26.9247 99.7698 28.035 99.7698 29.4105C99.7698 30.6617 99.4011 31.7595 98.6636 32.7041C97.9345 33.6487 96.9319 34.3862 95.6558 34.9165C94.3881 35.4385 92.9256 35.6995 91.2684 35.6995C88.7412 35.6995 86.7277 35.1734 85.2279 34.121C83.7364 33.0604 82.8623 31.6187 82.6054 29.7958L87.8131 29.5223C87.9706 30.2929 88.3517 30.8812 88.9566 31.2872C89.5615 31.685 90.3362 31.8838 91.2808 31.8838C92.2089 31.8838 92.9546 31.7057 93.518 31.3494C94.0898 30.9848 94.3798 30.5166 94.3881 29.9449C94.3798 29.4643 94.1768 29.0707 93.7791 28.7642C93.3813 28.4493 92.7682 28.209 91.9396 28.0433L88.6335 27.3845C86.7691 27.0117 85.3812 26.3654 84.4697 25.4456C83.5666 24.5259 83.115 23.3534 83.115 21.9282C83.115 20.7019 83.4464 19.6454 84.1093 18.7588C84.7805 17.8722 85.7209 17.1886 86.9307 16.7081C88.1487 16.2275 89.5739 15.9872 91.2063 15.9872C93.6175 15.9872 95.515 16.4968 96.8987 17.5159C98.2908 18.5351 99.1028 19.923 99.3348 21.6796ZM113.258 16.2358V20.213H101.762V16.2358H113.258ZM104.372 11.6619H109.666V29.4602C109.666 29.9491 109.741 30.3302 109.89 30.6036C110.039 30.8688 110.246 31.0552 110.512 31.163C110.785 31.2707 111.1 31.3245 111.456 31.3245C111.705 31.3245 111.953 31.3038 112.202 31.2624C112.45 31.2127 112.641 31.1754 112.774 31.1505L113.606 35.0905C113.341 35.1734 112.968 35.2687 112.488 35.3764C112.007 35.4924 111.423 35.5628 110.735 35.5877C109.459 35.6374 108.341 35.4675 107.379 35.0781C106.427 34.6886 105.685 34.0838 105.155 33.2634C104.624 32.4431 104.363 31.4074 104.372 30.1562V11.6619ZM125.128 35.6995C123.197 35.6995 121.528 35.2894 120.119 34.4691C118.719 33.6405 117.638 32.4887 116.875 31.0138C116.113 29.5306 115.732 27.8113 115.732 25.8558C115.732 23.8837 116.113 22.1602 116.875 20.6853C117.638 19.2021 118.719 18.0504 120.119 17.2301C121.528 16.4015 123.197 15.9872 125.128 15.9872C127.059 15.9872 128.724 16.4015 130.124 17.2301C131.533 18.0504 132.619 19.2021 133.381 20.6853C134.143 22.1602 134.524 23.8837 134.524 25.8558C134.524 27.8113 134.143 29.5306 133.381 31.0138C132.619 32.4887 131.533 33.6405 130.124 34.4691C128.724 35.2894 127.059 35.6995 125.128 35.6995ZM125.153 31.598C126.031 31.598 126.765 31.3494 127.353 30.8522C127.941 30.3468 128.384 29.659 128.683 28.789C128.989 27.919 129.143 26.9288 129.143 25.8185C129.143 24.7082 128.989 23.718 128.683 22.848C128.384 21.9779 127.941 21.2902 127.353 20.7848C126.765 20.2793 126.031 20.0266 125.153 20.0266C124.266 20.0266 123.521 20.2793 122.916 20.7848C122.319 21.2902 121.868 21.9779 121.561 22.848C121.263 23.718 121.113 24.7082 121.113 25.8185C121.113 26.9288 121.263 27.919 121.561 28.789C121.868 29.659 122.319 30.3468 122.916 30.8522C123.521 31.3494 124.266 31.598 125.153 31.598ZM146.593 35.6995C144.637 35.6995 142.955 35.2852 141.547 34.4566C140.146 33.6197 139.069 32.4597 138.315 30.9765C137.569 29.4933 137.197 27.7864 137.197 25.8558C137.197 23.9003 137.574 22.1851 138.328 20.7102C139.09 19.227 140.171 18.0711 141.572 17.2425C142.972 16.4056 144.637 15.9872 146.568 15.9872C148.234 15.9872 149.692 16.2896 150.943 16.8945C152.194 17.4994 153.184 18.3487 153.914 19.4424C154.643 20.5362 155.045 21.8205 155.119 23.2954H150.123C149.982 22.3425 149.609 21.5761 149.004 20.996C148.408 20.4077 147.624 20.1136 146.655 20.1136C145.835 20.1136 145.118 20.3373 144.505 20.7848C143.9 21.2239 143.428 21.8661 143.088 22.7112C142.748 23.5564 142.578 24.5797 142.578 25.7812C142.578 26.9992 142.744 28.035 143.075 28.8884C143.415 29.7419 143.892 30.3924 144.505 30.8398C145.118 31.2872 145.835 31.511 146.655 31.511C147.26 31.511 147.803 31.3867 148.283 31.1381C148.772 30.8895 149.174 30.5291 149.489 30.0568C149.812 29.5762 150.023 29.0003 150.123 28.3291H155.119C155.036 29.7875 154.639 31.0718 153.926 32.1821C153.222 33.2842 152.248 34.1459 151.005 34.7674C149.762 35.3888 148.292 35.6995 146.593 35.6995ZM163.307 29.8331L163.319 23.4818H164.09L170.205 16.2358H176.283L168.067 25.8309H166.812L163.307 29.8331ZM158.509 35.3267V9.87211H163.804V35.3267H158.509ZM170.441 35.3267L164.823 27.0117L168.353 23.2706L176.643 35.3267H170.441ZM181.975 35.6498C181.155 35.6498 180.45 35.3598 179.862 34.7798C179.282 34.1915 178.992 33.4872 178.992 32.6669C178.992 31.8548 179.282 31.1588 179.862 30.5788C180.45 29.9988 181.155 29.7088 181.975 29.7088C182.771 29.7088 183.467 29.9988 184.063 30.5788C184.66 31.1588 184.958 31.8548 184.958 32.6669C184.958 33.2137 184.817 33.715 184.535 34.1708C184.262 34.6182 183.902 34.9786 183.454 35.2521C183.007 35.5172 182.514 35.6498 181.975 35.6498Z" fill="white"/>
<path d="M11.8438 37.6616C25.5576 44.5731 29.7811 37.7436 31.042 35.2416C34.4046 28.5695 26.8007 25.3035 25.8871 20.1368C25.0749 15.5441 29.0627 6.59726 24.0759 4.08404C18.8813 1.46606 9.24715 13.3443 6.30488 19.1824C3.36261 25.0206 4.36349 33.8918 11.8438 37.6616Z" stroke="white" stroke-width="3.97667" stroke-linecap="square" stroke-linejoin="bevel"/>
<path d="M21.7489 27.9665C20.2269 27.1994 18.3712 27.8115 17.6042 29.3335C16.8371 30.8555 17.4491 32.7112 18.9711 33.4783C20.4932 34.2454 22.3489 33.6333 23.116 32.1113C23.883 30.5893 23.271 28.7336 21.7489 27.9665Z" stroke="white" stroke-width="3.97667" stroke-linecap="square" stroke-linejoin="bevel"/>
</svg>
