<svg width="44" height="44" viewBox="0 0 44 44" fill="none" xmlns="http://www.w3.org/2000/svg">
<path d="M39.1875 0.125H4.8125C3.5693 0.125 2.37701 0.61886 1.49794 1.49794C0.61886 2.37701 0.125 3.5693 0.125 4.8125V12.625H43.875V4.8125C43.875 3.5693 43.3811 2.37701 42.5021 1.49794C41.623 0.61886 40.4307 0.125 39.1875 0.125ZM7.9375 7.9375H6.375C5.9606 7.9375 5.56317 7.77288 5.27015 7.47985C4.97712 7.18683 4.8125 6.7894 4.8125 6.375C4.8125 5.9606 4.97712 5.56317 5.27015 5.27015C5.56317 4.97712 5.9606 4.8125 6.375 4.8125H7.9375C8.3519 4.8125 8.74933 4.97712 9.04235 5.27015C9.33538 5.56317 9.5 5.9606 9.5 6.375C9.5 6.7894 9.33538 7.18683 9.04235 7.47985C8.74933 7.77288 8.3519 7.9375 7.9375 7.9375ZM15.75 7.9375H14.1875C13.7731 7.9375 13.3757 7.77288 13.0826 7.47985C12.7896 7.18683 12.625 6.7894 12.625 6.375C12.625 5.9606 12.7896 5.56317 13.0826 5.27015C13.3757 4.97712 13.7731 4.8125 14.1875 4.8125H15.75C16.1644 4.8125 16.5618 4.97712 16.8549 5.27015C17.1479 5.56317 17.3125 5.9606 17.3125 6.375C17.3125 6.7894 17.1479 7.18683 16.8549 7.47985C16.5618 7.77288 16.1644 7.9375 15.75 7.9375Z" fill="white"/>
<path d="M9.5 23.5625H17.3125V36.0625H9.5V23.5625Z" fill="white"/>
<path d="M0.125 39.1875C0.125 40.4307 0.61886 41.623 1.49794 42.5021C2.37701 43.3811 3.5693 43.875 4.8125 43.875H39.1875C40.4307 43.875 41.623 43.3811 42.5021 42.5021C43.3811 41.623 43.875 40.4307 43.875 39.1875V15.75H0.125V39.1875ZM25.125 22H36.0625C36.4769 22 36.8743 22.1646 37.1674 22.4576C37.4604 22.7507 37.625 23.1481 37.625 23.5625C37.625 23.9769 37.4604 24.3743 37.1674 24.6674C36.8743 24.9604 36.4769 25.125 36.0625 25.125H25.125C24.7106 25.125 24.3132 24.9604 24.0201 24.6674C23.7271 24.3743 23.5625 23.9769 23.5625 23.5625C23.5625 23.1481 23.7271 22.7507 24.0201 22.4576C24.3132 22.1646 24.7106 22 25.125 22ZM25.125 28.25H36.0625C36.4769 28.25 36.8743 28.4146 37.1674 28.7076C37.4604 29.0007 37.625 29.3981 37.625 29.8125C37.625 30.2269 37.4604 30.6243 37.1674 30.9174C36.8743 31.2104 36.4769 31.375 36.0625 31.375H25.125C24.7106 31.375 24.3132 31.2104 24.0201 30.9174C23.7271 30.6243 23.5625 30.2269 23.5625 29.8125C23.5625 29.3981 23.7271 29.0007 24.0201 28.7076C24.3132 28.4146 24.7106 28.25 25.125 28.25ZM25.125 34.5H36.0625C36.4769 34.5 36.8743 34.6646 37.1674 34.9576C37.4604 35.2507 37.625 35.6481 37.625 36.0625C37.625 36.4769 37.4604 36.8743 37.1674 37.1674C36.8743 37.4604 36.4769 37.625 36.0625 37.625H25.125C24.7106 37.625 24.3132 37.4604 24.0201 37.1674C23.7271 36.8743 23.5625 36.4769 23.5625 36.0625C23.5625 35.6481 23.7271 35.2507 24.0201 34.9576C24.3132 34.6646 24.7106 34.5 25.125 34.5ZM6.375 23.5625C6.375 22.7337 6.70424 21.9388 7.29029 21.3528C7.87634 20.7667 8.6712 20.4375 9.5 20.4375H17.3125C18.1413 20.4375 18.9362 20.7667 19.5222 21.3528C20.1083 21.9388 20.4375 22.7337 20.4375 23.5625V36.0625C20.4375 36.8913 20.1083 37.6862 19.5222 38.2722C18.9362 38.8583 18.1413 39.1875 17.3125 39.1875H9.5C8.6712 39.1875 7.87634 38.8583 7.29029 38.2722C6.70424 37.6862 6.375 36.8913 6.375 36.0625V23.5625Z" fill="white"/>
</svg>
