<svg width="42" height="42" viewBox="0 0 42 42" fill="none" xmlns="http://www.w3.org/2000/svg">
<g clip-path="url(#clip0_2011_342)">
<path d="M10.5 0H1.75C0.784 0 0 0.784 0 1.75V10.5C0 11.466 0.784 12.25 1.75 12.25H10.5C11.466 12.25 12.25 11.466 12.25 10.5V1.75C12.25 0.784 11.466 0 10.5 0Z" fill="white"/>
<path d="M27.125 10.5V1.75C27.125 0.784 26.341 0 25.375 0H16.625C15.659 0 14.875 0.784 14.875 1.75V10.5C14.875 11.466 15.659 12.25 16.625 12.25H25.375C26.341 12.25 27.125 11.466 27.125 10.5Z" fill="white"/>
<path d="M27.125 16.625C27.125 15.659 26.341 14.875 25.375 14.875H14.875H12.25H1.75C0.784 14.875 0 15.659 0 16.625V25.375C0 26.341 0.784 27.125 1.75 27.125H25.375C26.341 27.125 27.125 26.341 27.125 25.375V16.625Z" fill="white"/>
<path d="M40.25 0H31.5C30.534 0 29.75 0.784 29.75 1.75V10.5C29.75 11.466 30.534 12.25 31.5 12.25H40.25C41.216 12.25 42 11.466 42 10.5V1.75C42 0.784 41.216 0 40.25 0Z" fill="white"/>
<path d="M0 31.5V40.25C0 41.216 0.784 42 1.75 42H25.375C26.341 42 27.125 41.216 27.125 40.25V31.5C27.125 30.534 26.341 29.75 25.375 29.75H1.75C0.784 29.75 0 30.534 0 31.5Z" fill="white"/>
<path d="M31.5 27.125H40.25C41.216 27.125 42 26.341 42 25.375V16.625C42 15.659 41.216 14.875 40.25 14.875H31.5C30.534 14.875 29.75 15.659 29.75 16.625V25.375C29.75 26.341 30.534 27.125 31.5 27.125Z" fill="white"/>
<path d="M31.5 42H40.25C41.216 42 42 41.216 42 40.25V31.5C42 30.534 41.216 29.75 40.25 29.75H31.5C30.534 29.75 29.75 30.534 29.75 31.5V40.25C29.75 41.216 30.534 42 31.5 42Z" fill="white"/>
</g>
<defs>
<clipPath id="clip0_2011_342">
<rect width="42" height="42" fill="white"/>
</clipPath>
</defs>
</svg>
