<svg width="42" height="52" viewBox="0 0 42 52" fill="none" xmlns="http://www.w3.org/2000/svg">
<path d="M35.1172 0.682129V5.2306H40.3372L35.1172 0.682129Z" fill="white"/>
<path d="M27.1866 11.4612V5.66455H0.746094V51.9998H34.4559V12.0276H27.753C27.6028 12.0276 27.4587 11.9679 27.3525 11.8617C27.2463 11.7554 27.1866 11.6114 27.1866 11.4612ZM5.70645 19.3165H14.6557V20.4493H5.70645V19.3165ZM3.80333 22.2618H2.67052V11.4801H3.80333V22.2618ZM3.80333 10.1407H2.67052V8.46668H3.80333V10.1407ZM29.3822 47.6368H5.70645V46.504H29.3822V47.6368ZM29.3822 43.1056H5.70645V41.9728H29.3822V43.1056ZM29.3822 38.5743H5.70645V37.4415H29.3822V38.5743ZM29.3822 34.0431H5.70645V32.9103H29.3822V34.0431ZM29.3822 29.5118H5.70645V28.379H29.3822V29.5118ZM29.3822 24.9806H5.70645V23.8478H29.3822V24.9806Z" fill="white"/>
<path d="M34.5499 6.3635C34.3997 6.3635 34.2556 6.30382 34.1494 6.1976C34.0432 6.09138 33.9835 5.94731 33.9835 5.79709V0.000488281H7.54297V4.53174H27.5232C27.542 4.53174 27.5608 4.53276 27.5798 4.53457L28.151 4.69668L35.3947 11.0086C35.4558 11.0618 35.5047 11.1274 35.5382 11.2011C35.5717 11.2747 35.589 11.3547 35.589 11.4357V46.3357H41.2531V6.3635H34.5499Z" fill="white"/>
<path d="M28.3203 10.8947H33.5403L28.3203 6.34619V10.8947Z" fill="white"/>
</svg>
