<svg width="188" height="45" viewBox="0 0 188 45" fill="none" xmlns="http://www.w3.org/2000/svg">
<path d="M39.9389 35.3267V32.1324L52.6413 14.3093H39.9141V9.87211H59.4027V13.0664L46.6879 30.8895H59.4276V35.3267H39.9389ZM68.9015 35.6871C67.6835 35.6871 66.598 35.4758 65.6452 35.0532C64.6923 34.6224 63.9382 33.9885 63.3831 33.1516C62.8362 32.3064 62.5628 31.2541 62.5628 29.9946C62.5628 28.934 62.7575 28.0433 63.1469 27.3224C63.5364 26.6015 64.0667 26.0215 64.7378 25.5823C65.409 25.1432 66.1713 24.8117 67.0248 24.588C67.8865 24.3643 68.7897 24.2069 69.7343 24.1157C70.8446 23.9997 71.7395 23.892 72.4189 23.7926C73.0984 23.6849 73.5914 23.5274 73.898 23.3203C74.2046 23.1131 74.3579 22.8065 74.3579 22.4005V22.3259C74.3579 21.5388 74.1093 20.9298 73.6121 20.4989C73.1233 20.068 72.4272 19.8526 71.5241 19.8526C70.5712 19.8526 69.813 20.0639 69.2496 20.4865C68.6861 20.9008 68.3132 21.4228 68.1309 22.0525L63.2339 21.6548C63.4825 20.4947 63.9714 19.4921 64.7006 18.647C65.4297 17.7935 66.3702 17.1389 67.5219 16.6832C68.682 16.2192 70.0243 15.9872 71.5489 15.9872C72.6095 15.9872 73.6246 16.1115 74.594 16.36C75.5718 16.6086 76.4376 16.9939 77.1917 17.5159C77.954 18.038 78.5547 18.7091 78.9939 19.5294C79.433 20.3415 79.6526 21.3151 79.6526 22.4502V35.3267H74.6313V32.6793H74.4822C74.1756 33.2759 73.7654 33.802 73.2517 34.2578C72.738 34.7052 72.1206 35.0574 71.3998 35.3142C70.6789 35.5628 69.8461 35.6871 68.9015 35.6871ZM70.4179 32.033C71.1968 32.033 71.8845 31.8797 72.4811 31.5731C73.0777 31.2582 73.5458 30.8357 73.8856 30.3054C74.2253 29.7751 74.3952 29.1743 74.3952 28.5032V26.4772C74.2294 26.5849 74.0016 26.6844 73.7116 26.7755C73.4298 26.8584 73.1108 26.9371 72.7545 27.0117C72.3982 27.078 72.0419 27.1401 71.6856 27.1981C71.3293 27.2478 71.0062 27.2934 70.7162 27.3348C70.0947 27.426 69.552 27.571 69.088 27.7698C68.624 27.9687 68.2635 28.238 68.0067 28.5777C67.7498 28.9092 67.6214 29.3235 67.6214 29.8206C67.6214 30.5415 67.8824 31.0925 68.4044 31.4737C68.9347 31.8465 69.6059 32.033 70.4179 32.033ZM99.6446 21.6796L94.7973 21.9779C94.7145 21.5636 94.5363 21.1908 94.2629 20.8593C93.9894 20.5196 93.629 20.2503 93.1816 20.0514C92.7424 19.8443 92.2162 19.7407 91.6031 19.7407C90.7828 19.7407 90.0909 19.9147 89.5274 20.2627C88.964 20.6025 88.6823 21.0582 88.6823 21.6299C88.6823 22.0857 88.8646 22.471 89.2291 22.7858C89.5937 23.1007 90.2193 23.3534 91.1059 23.544L94.5612 24.24C96.4172 24.6212 97.801 25.2343 98.7124 26.0795C99.6239 26.9247 100.08 28.035 100.08 29.4105C100.08 30.6617 99.7109 31.7595 98.9735 32.7041C98.2443 33.6487 97.2417 34.3862 95.9656 34.9165C94.6979 35.4385 93.2354 35.6995 91.5782 35.6995C89.051 35.6995 87.0375 35.1734 85.5377 34.121C84.0463 33.0604 83.1721 31.6187 82.9152 29.7958L88.123 29.5223C88.2804 30.2929 88.6615 30.8812 89.2664 31.2872C89.8713 31.685 90.646 31.8838 91.5906 31.8838C92.5187 31.8838 93.2644 31.7057 93.8279 31.3494C94.3996 30.9848 94.6896 30.5166 94.6979 29.9449C94.6896 29.4643 94.4866 29.0707 94.0889 28.7642C93.6911 28.4493 93.078 28.209 92.2494 28.0433L88.9433 27.3845C87.0789 27.0117 85.691 26.3654 84.7796 25.4456C83.8764 24.5259 83.4248 23.3534 83.4248 21.9282C83.4248 20.7019 83.7562 19.6454 84.4191 18.7588C85.0903 17.8722 86.0307 17.1886 87.2405 16.7081C88.4585 16.2275 89.8837 15.9872 91.5161 15.9872C93.9273 15.9872 95.8248 16.4968 97.2085 17.5159C98.6006 18.5351 99.4126 19.923 99.6446 21.6796ZM113.568 16.2358V20.213H102.071V16.2358H113.568ZM104.681 11.6619H109.976V29.4602C109.976 29.9491 110.051 30.3302 110.2 30.6036C110.349 30.8688 110.556 31.0552 110.821 31.163C111.095 31.2707 111.41 31.3245 111.766 31.3245C112.015 31.3245 112.263 31.3038 112.512 31.2624C112.76 31.2127 112.951 31.1754 113.083 31.1505L113.916 35.0905C113.651 35.1734 113.278 35.2687 112.798 35.3764C112.317 35.4924 111.733 35.5628 111.045 35.5877C109.769 35.6374 108.65 35.4675 107.689 35.0781C106.736 34.6886 105.995 34.0838 105.464 33.2634C104.934 32.4431 104.673 31.4074 104.681 30.1562V11.6619ZM125.438 35.6995C123.507 35.6995 121.838 35.2894 120.429 34.4691C119.029 33.6405 117.947 32.4887 117.185 31.0138C116.423 29.5306 116.042 27.8113 116.042 25.8558C116.042 23.8837 116.423 22.1602 117.185 20.6853C117.947 19.2021 119.029 18.0504 120.429 17.2301C121.838 16.4015 123.507 15.9872 125.438 15.9872C127.368 15.9872 129.034 16.4015 130.434 17.2301C131.843 18.0504 132.928 19.2021 133.691 20.6853C134.453 22.1602 134.834 23.8837 134.834 25.8558C134.834 27.8113 134.453 29.5306 133.691 31.0138C132.928 32.4887 131.843 33.6405 130.434 34.4691C129.034 35.2894 127.368 35.6995 125.438 35.6995ZM125.463 31.598C126.341 31.598 127.074 31.3494 127.663 30.8522C128.251 30.3468 128.694 29.659 128.993 28.789C129.299 27.919 129.452 26.9288 129.452 25.8185C129.452 24.7082 129.299 23.718 128.993 22.848C128.694 21.9779 128.251 21.2902 127.663 20.7848C127.074 20.2793 126.341 20.0266 125.463 20.0266C124.576 20.0266 123.83 20.2793 123.225 20.7848C122.629 21.2902 122.177 21.9779 121.871 22.848C121.572 23.718 121.423 24.7082 121.423 25.8185C121.423 26.9288 121.572 27.919 121.871 28.789C122.177 29.659 122.629 30.3468 123.225 30.8522C123.83 31.3494 124.576 31.598 125.463 31.598ZM146.903 35.6995C144.947 35.6995 143.265 35.2852 141.857 34.4566C140.456 33.6197 139.379 32.4597 138.625 30.9765C137.879 29.4933 137.506 27.7864 137.506 25.8558C137.506 23.9003 137.883 22.1851 138.637 20.7102C139.4 19.227 140.481 18.0711 141.881 17.2425C143.282 16.4056 144.947 15.9872 146.878 15.9872C148.543 15.9872 150.002 16.2896 151.253 16.8945C152.504 17.4994 153.494 18.3487 154.223 19.4424C154.953 20.5362 155.354 21.8205 155.429 23.2954H150.433C150.292 22.3425 149.919 21.5761 149.314 20.996C148.717 20.4077 147.934 20.1136 146.965 20.1136C146.145 20.1136 145.428 20.3373 144.815 20.7848C144.21 21.2239 143.737 21.8661 143.398 22.7112C143.058 23.5564 142.888 24.5797 142.888 25.7812C142.888 26.9992 143.054 28.035 143.385 28.8884C143.725 29.7419 144.201 30.3924 144.815 30.8398C145.428 31.2872 146.145 31.511 146.965 31.511C147.57 31.511 148.112 31.3867 148.593 31.1381C149.082 30.8895 149.484 30.5291 149.799 30.0568C150.122 29.5762 150.333 29.0003 150.433 28.3291H155.429C155.346 29.7875 154.948 31.0718 154.236 32.1821C153.531 33.2842 152.558 34.1459 151.315 34.7674C150.072 35.3888 148.601 35.6995 146.903 35.6995ZM163.617 29.8331L163.629 23.4818H164.4L170.515 16.2358H176.592L168.377 25.8309H167.122L163.617 29.8331ZM158.819 35.3267V9.87211H164.114V35.3267H158.819ZM170.751 35.3267L165.133 27.0117L168.663 23.2706L176.953 35.3267H170.751ZM182.285 35.6498C181.465 35.6498 180.76 35.3598 180.172 34.7798C179.592 34.1915 179.302 33.4872 179.302 32.6669C179.302 31.8548 179.592 31.1588 180.172 30.5788C180.76 29.9988 181.465 29.7088 182.285 29.7088C183.08 29.7088 183.776 29.9988 184.373 30.5788C184.97 31.1588 185.268 31.8548 185.268 32.6669C185.268 33.2137 185.127 33.715 184.845 34.1708C184.572 34.6182 184.211 34.9786 183.764 35.2521C183.316 35.5172 182.823 35.6498 182.285 35.6498Z" fill="#0F0F0F"/>
<path d="M12.1536 37.6616C25.8674 44.5731 30.0909 37.7436 31.3518 35.2416C34.7144 28.5695 27.1105 25.3035 26.1969 20.1368C25.3848 15.5441 29.3726 6.59726 24.3858 4.08404C19.1911 1.46606 9.55697 13.3443 6.61469 19.1824C3.67242 25.0206 4.6733 33.8918 12.1536 37.6616Z" stroke="#00D084" stroke-width="3.97667" stroke-linecap="square" stroke-linejoin="bevel"/>
<path d="M22.0587 27.9665C20.5367 27.1994 18.681 27.8115 17.914 29.3335C17.1469 30.8555 17.7589 32.7112 19.2809 33.4783C20.803 34.2454 22.6587 33.6333 23.4258 32.1113C24.1928 30.5893 23.5808 28.7336 22.0587 27.9665Z" stroke="#00D084" stroke-width="3.97667" stroke-linecap="square" stroke-linejoin="bevel"/>
</svg>
