<svg width="302" height="288" viewBox="0 0 302 288" fill="none" xmlns="http://www.w3.org/2000/svg">
<path d="M143.985 79.2041C140.645 79.2041 137.973 81.8761 137.973 85.2161V123.96C137.973 127.3 140.645 129.972 143.985 129.972H154.339C157.679 129.972 160.351 127.3 160.351 123.96V85.2161C160.351 81.8761 157.679 79.2041 154.339 79.2041H143.985Z" fill="#656565"/>
<path d="M285.601 223.826H282.929V77.5339C282.929 64.1739 272.241 53.4859 258.881 53.4859H252.535V16.4119C252.535 7.72788 245.521 0.379883 236.503 0.379883H65.4952C56.8112 0.379883 49.7972 7.39388 49.7972 16.4119V53.4859H43.4512C30.0912 53.4859 19.4032 64.1739 19.4032 77.5339V223.826H16.3972C7.71322 223.826 0.699219 230.84 0.699219 239.524V252.55C0.699219 271.588 16.3972 287.286 35.4352 287.286H266.563C285.601 287.286 301.299 271.588 301.299 252.55V239.524C301.299 230.84 294.285 223.826 285.601 223.826ZM236.503 10.7339C239.843 10.7339 242.515 13.4059 242.515 16.7459V34.7819H132.295L118.601 10.7339H236.503ZM190.411 111.268C187.739 111.268 185.401 108.93 185.401 106.258V77.8679C185.401 75.1959 187.739 72.8579 190.411 72.8579C193.083 72.8579 195.421 75.1959 195.421 77.8679V101.248H213.123V77.8679C213.123 75.1959 215.461 72.8579 218.133 72.8579C220.805 72.8579 223.143 75.1959 223.143 77.8679V134.648C223.143 137.32 220.805 139.658 218.133 139.658C215.461 139.658 213.123 137.32 213.123 134.648V111.268H190.411ZM170.371 85.2159V123.96C170.371 132.644 163.357 139.992 154.339 139.992H143.985C135.301 139.992 127.953 132.978 127.953 123.96V85.2159C127.953 76.5319 134.967 69.1839 143.985 69.1839H154.339C163.023 69.1839 170.371 76.1979 170.371 85.2159ZM59.4832 16.4119C59.4832 13.0719 62.1552 10.3999 65.1612 10.3999H106.577L120.271 34.4479H59.4832V16.4119ZM80.1912 111.268C77.5192 111.268 75.1812 108.93 75.1812 106.258V77.8679C75.1812 75.1959 77.5192 72.8579 80.1912 72.8579C82.8632 72.8579 85.2012 75.1959 85.2012 77.8679V101.248H102.903V77.8679C102.903 75.1959 105.241 72.8579 107.913 72.8579C110.585 72.8579 112.923 75.1959 112.923 77.8679V134.648C112.923 137.32 110.585 139.658 107.913 139.658C105.241 139.658 102.903 137.32 102.903 134.648V111.268H80.1912ZM42.1152 260.566C39.4432 260.566 37.1052 258.228 37.1052 255.556C37.1052 252.884 39.4432 250.546 42.1152 250.546C44.7872 250.546 47.1252 252.884 47.1252 255.556C47.1252 258.228 44.7872 260.566 42.1152 260.566ZM70.1712 260.566C67.4992 260.566 65.1612 258.228 65.1612 255.556C65.1612 252.884 67.4992 250.546 70.1712 250.546C72.8432 250.546 75.1812 252.884 75.1812 255.556C75.1812 258.228 72.8432 260.566 70.1712 260.566ZM272.909 223.826H187.405C184.733 223.826 182.395 226.164 182.395 228.836V241.528H119.603V228.836C119.603 226.164 117.265 223.826 114.593 223.826H29.0892V77.5339C29.0892 69.8519 35.4352 63.5059 43.1172 63.5059H49.4632V165.042C49.4632 173.726 56.4772 181.074 65.1612 181.074H236.169C244.853 181.074 252.201 174.06 252.201 165.042V63.5059H258.547C266.229 63.5059 272.575 69.8519 272.575 77.5339V223.826H272.909Z" fill="#656565"/>
</svg>
