<svg width="69" height="78" viewBox="0 0 69 78" fill="none" xmlns="http://www.w3.org/2000/svg">
<path d="M3.5 30.9297C3.5 29.0779 3.5 28.152 4.07527 27.5767C4.65055 27.0015 5.57644 27.0015 7.42821 27.0015H61.5718C63.4236 27.0015 64.3495 27.0015 64.9247 27.5767C65.5 28.152 65.5 29.0779 65.5 30.9297V69.1091C65.5 71.8868 65.5 73.2756 64.6371 74.1386C63.7742 75.0015 62.3854 75.0015 59.6077 75.0015H9.39232C6.61465 75.0015 5.22582 75.0015 4.36291 74.1386C3.5 73.2756 3.5 71.8868 3.5 69.1091V30.9297Z" stroke="#00D084" stroke-width="5.04"/>
<path d="M50 23.0015V12.822C50 8.19255 50 5.87783 48.5618 4.43965C47.1236 3.00146 44.8089 3.00146 40.1795 3.00146H28.8205C24.1911 3.00146 21.8764 3.00146 20.4382 4.43965C19 5.87783 19 8.19255 19 12.822V23.0015" stroke="#00D084" stroke-width="5.04" stroke-linecap="round"/>
<ellipse cx="34.5" cy="51.002" rx="7.75" ry="8" fill="#00D084"/>
</svg>
