<svg width="29" height="29" viewBox="0 0 29 29" fill="none" xmlns="http://www.w3.org/2000/svg">
<mask id="mask0_382_4352" style="mask-type:luminance" maskUnits="userSpaceOnUse" x="0" y="0" width="29" height="29">
<path fill-rule="evenodd" clip-rule="evenodd" d="M28.6547 11.9057H14.8632V17.4942H22.8017C22.0617 21.0445 18.967 23.0827 14.8632 23.0827C10.0193 23.0827 6.11732 19.2693 6.11732 14.5356C6.11732 9.80181 10.0193 5.9885 14.8632 5.9885C16.9487 5.9885 18.8324 6.71171 20.3125 7.89515L24.6181 3.68736C21.9944 1.45197 18.6306 0.0712891 14.8632 0.0712891C6.65552 0.0712891 0.0625 6.51447 0.0625 14.5356C0.0625 22.5567 6.65552 28.9999 14.8632 28.9999C22.2635 28.9999 28.9911 23.7401 28.9911 14.5356C28.9911 13.6809 28.8565 12.7604 28.6547 11.9057Z" fill="white"/>
</mask>
<g mask="url(#mask0_382_4352)">
<path d="M-1.28516 23.0826V5.98846L10.1517 14.5355L-1.28516 23.0826Z" fill="#FBBC05"/>
</g>
<mask id="mask1_382_4352" style="mask-type:luminance" maskUnits="userSpaceOnUse" x="0" y="0" width="29" height="29">
<path fill-rule="evenodd" clip-rule="evenodd" d="M28.6547 11.9057H14.8632V17.4942H22.8017C22.0617 21.0445 18.967 23.0827 14.8632 23.0827C10.0193 23.0827 6.11732 19.2693 6.11732 14.5356C6.11732 9.80181 10.0193 5.9885 14.8632 5.9885C16.9487 5.9885 18.8324 6.71171 20.3125 7.89515L24.6181 3.68736C21.9944 1.45197 18.6306 0.0712891 14.8632 0.0712891C6.65552 0.0712891 0.0625 6.51447 0.0625 14.5356C0.0625 22.5567 6.65552 28.9999 14.8632 28.9999C22.2635 28.9999 28.9911 23.7401 28.9911 14.5356C28.9911 13.6809 28.8565 12.7604 28.6547 11.9057Z" fill="white"/>
</mask>
<g mask="url(#mask1_382_4352)">
<path d="M-1.28516 5.98843L10.1517 14.5355L14.861 10.525L31.0072 7.96083V-1.24371H-1.28516V5.98843Z" fill="#EA4335"/>
</g>
<mask id="mask2_382_4352" style="mask-type:luminance" maskUnits="userSpaceOnUse" x="0" y="0" width="29" height="29">
<path fill-rule="evenodd" clip-rule="evenodd" d="M28.6547 11.9057H14.8632V17.4942H22.8017C22.0617 21.0445 18.967 23.0827 14.8632 23.0827C10.0193 23.0827 6.11732 19.2693 6.11732 14.5356C6.11732 9.80181 10.0193 5.9885 14.8632 5.9885C16.9487 5.9885 18.8324 6.71171 20.3125 7.89515L24.6181 3.68736C21.9944 1.45197 18.6306 0.0712891 14.8632 0.0712891C6.65552 0.0712891 0.0625 6.51447 0.0625 14.5356C0.0625 22.5567 6.65552 28.9999 14.8632 28.9999C22.2635 28.9999 28.9911 23.7401 28.9911 14.5356C28.9911 13.6809 28.8565 12.7604 28.6547 11.9057Z" fill="white"/>
</mask>
<g mask="url(#mask2_382_4352)">
<path d="M-1.28516 23.0826L18.8976 7.96083L24.2124 8.6183L31.0072 -1.24371V30.3147H-1.28516V23.0826Z" fill="#34A853"/>
</g>
<mask id="mask3_382_4352" style="mask-type:luminance" maskUnits="userSpaceOnUse" x="0" y="0" width="29" height="29">
<path fill-rule="evenodd" clip-rule="evenodd" d="M28.6547 11.9057H14.8632V17.4942H22.8017C22.0617 21.0445 18.967 23.0827 14.8632 23.0827C10.0193 23.0827 6.11732 19.2693 6.11732 14.5356C6.11732 9.80181 10.0193 5.9885 14.8632 5.9885C16.9487 5.9885 18.8324 6.71171 20.3125 7.89515L24.6181 3.68736C21.9944 1.45197 18.6306 0.0712891 14.8632 0.0712891C6.65552 0.0712891 0.0625 6.51447 0.0625 14.5356C0.0625 22.5567 6.65552 28.9999 14.8632 28.9999C22.2635 28.9999 28.9911 23.7401 28.9911 14.5356C28.9911 13.6809 28.8565 12.7604 28.6547 11.9057Z" fill="white"/>
</mask>
<g mask="url(#mask3_382_4352)">
<path d="M31.0153 30.3148L10.1598 14.5355L7.46875 12.5631L31.0153 5.98846V30.3148Z" fill="#4285F4"/>
</g>
</svg>
