<svg width="32" height="32" viewBox="0 0 32 32" fill="none" xmlns="http://www.w3.org/2000/svg">
<path d="M31.9961 16C31.9961 7.16344 24.8327 0 15.9961 0C7.15953 0 -0.00390625 7.16344 -0.00390625 16C-0.00390625 23.9859 5.84703 30.6053 13.4961 31.8056V20.625H9.43359V16H13.4961V12.475C13.4961 8.465 15.8848 6.25 19.5395 6.25C21.2902 6.25 23.1211 6.5625 23.1211 6.5625V10.5H21.1036C19.1161 10.5 18.4961 11.7334 18.4961 12.9987V16H22.9336L22.2242 20.625H18.4961V31.8056C26.1452 30.6053 31.9961 23.9862 31.9961 16Z" fill="#1877F2"/>
<path d="M22.2242 20.625L22.9336 16H18.4961V12.9987C18.4961 11.7334 19.1161 10.5 21.1036 10.5H23.1211V6.5625C23.1211 6.5625 21.2902 6.25 19.5395 6.25C15.8848 6.25 13.4961 8.465 13.4961 12.475V16H9.43359V20.625H13.4961V31.8056C14.3108 31.9334 15.1455 32 15.9961 32C16.8467 32 17.6814 31.9334 18.4961 31.8056V20.625H22.2242Z" fill="white"/>
</svg>
