<svg width="26" height="28" viewBox="0 0 26 28" fill="none" xmlns="http://www.w3.org/2000/svg">
<path d="M2.6775 24.6937C4.1775 26.5 6.9675 26.5 12.55 26.5H13.45C19.0325 26.5 21.8238 26.5 23.3238 24.6937M2.6775 24.6937C1.1775 22.8862 1.6925 20.1437 2.72125 14.6562C3.4525 10.7562 3.8175 8.805 5.20625 7.6525M23.3238 24.6937C24.8238 22.8862 24.3088 20.1437 23.28 14.6562C22.5488 10.7562 22.1825 8.805 20.7938 7.6525M20.7938 7.6525C19.4063 6.5 17.42 6.5 13.4513 6.5H12.5488C8.58 6.5 6.595 6.5 5.20625 7.6525" stroke="white" stroke-width="1.5"/>
<path d="M9.25 6.5V5.25C9.25 4.25544 9.64509 3.30161 10.3483 2.59835C11.0516 1.89509 12.0054 1.5 13 1.5C13.9946 1.5 14.9484 1.89509 15.6517 2.59835C16.3549 3.30161 16.75 4.25544 16.75 5.25V6.5" stroke="white" stroke-width="1.5" stroke-linecap="round"/>
</svg>
